<?xml version="1.0" encoding="utf-8"?>
<!-- Generator: Adobe Illustrator 24.1.1, SVG Export Plug-In . SVG Version: 6.00 Build 0)  -->
<svg version="1.1" id="Capa_1" xmlns="http://www.w3.org/2000/svg" xmlns:xlink="http://www.w3.org/1999/xlink" x="0px" y="0px"
	 viewBox="0 0 583 695.5" style="enable-background:new 0 0 583 695.5;" xml:space="preserve">
<style type="text/css">
	.st0{fill:#F2F2F2;}
	.st1{fill:#3F3D56;}
	.st2{fill:#FFFFFF;}
	.st3{fill:#E6E6E6;}
	.st4{fill:#FFDC1F;}
	.st5{fill:#A0616A;}
	.st6{fill:#2F2E41;}
	.st7{opacity:0.1;enable-background:new    ;}
	.st8{fill:none;}
</style>
<path class="st0" d="M151.8,420.8c-0.8-1.4-4.5,0.1-5.2-1.2s2.7-3.2,4.7-7.7c0.3-0.8,2.6-5.9,0.9-7.5c-3.1-3-17.2,9.3-22.2,5.3
	c-1.1-0.9-1.8-2.6-5.1-5.5c-1.3-1.1-2.1-1.7-2.9-1.5c-1.1,0.3-1.2,1.7-2.3,4.6c-1.7,4.3-2.8,4-3.8,7.4c-0.8,2.5-0.6,4-1.5,4.3
	c-1.3,0.4-2.4-2.3-4-2s-2.6,3.4-2.9,5.7c-0.6,4.4,1,7.3,1.9,10.4c1,3.3,1.6,8.4-0.7,15.5l-22.3,62.8c4.9-12.9,19.2-48.2,25.1-61.3
	c1.7-3.8,3.6-7.6,7.6-9.1c3.8-1.5,8.9-0.6,15.6-2.2c0.8-0.2,2.9-0.7,3.2-2c0.2-1-1-1.6-0.8-2.6c0.3-1.3,2.7-1.3,5.8-2.8
	c1.7-0.9,3.3-2,4.6-3.4C147.8,427.6,152.9,422.7,151.8,420.8z"/>
<path class="st0" d="M64.1,453.8c-0.9,0-1.2,2.2-2.1,2.2s-0.8-2.3-2.4-4.5c-0.3-0.4-2.2-3-3.4-2.6c-2.4,0.7-0.4,11.1-3.8,12.4
	c-0.7,0.3-1.8,0.1-4.2,0.9c-0.9,0.3-1.4,0.6-1.5,1c-0.2,0.6,0.5,1.1,1.6,2.5c1.6,2.1,1.2,2.5,2.6,4c1,1.1,1.8,1.4,1.7,2
	s-1.8,0.5-2.2,1.4s0.9,2.3,2,3.1c2,1.6,3.9,1.6,5.6,2c2.9,0.8,5.5,2.5,7.4,4.8l24.4,29c-4.9-6.1-18.1-23.3-22.8-30
	c-1.4-1.9-2.7-4-2.3-6.3s2.3-4.6,3.4-8.3c0.1-0.4,0.5-1.6-0.1-2.1c-0.4-0.4-1.1,0-1.5-0.3c-0.6-0.5,0.1-1.7,0.3-3.7
	c0.1-1.1,0-2.2-0.3-3.3C66.3,457.8,65.4,453.8,64.1,453.8z"/>
<path class="st0" d="M82.9,458l-0.6-5.1l0.3-0.4c1.1-1.5,1.7-3.3,1.8-5.2v-0.8c-0.1-1.3,0.1-2.7,0.6-3.9c0.4-0.9,1.5-2.8,3.1-2.6
	c0.4,0.1,0.7,0.3,1,0.5c0-0.1,0.1-0.1,0.1-0.2c0.3-0.6,0.8-1,1.3-1.4c0.4-0.3,0.8-0.7,1.1-1.1c0.2-0.3,0.4-0.5,0.5-0.7
	c0.4-0.7,1.1-1.2,1.9-1.3c0.9,0.1,1.6,0.7,1.9,1.5c0.4,0.7,0.8,1.4,1.1,2.2c0.1,0.2,0.1,0.4,0.2,0.4c0.3,0.5,3,0,4.1-0.1
	c2.3-0.4,4.3-0.7,5.1,0.7c0.6,1,0.2,2.4-1.3,4.2c-0.4,0.5-0.9,0.9-1.4,1.3c0.4,0.2,0.7,0.6,0.8,1.1l0,0c0.3,1.2-0.7,2.5-3.1,3.7
	c-0.8,0.4-1.6,0.7-2.5,0.9c-0.5,0.1-0.9,0.1-1.4,0.1c0,0.3-0.1,0.5-0.2,0.8c-0.4,0.8-1.3,1.1-2.6,1c-1.2-0.1-2.5-0.3-3.7-0.6
	c-0.7-0.2-1.5-0.3-2.3-0.3c-1.2,0.1-2,1-3.1,2.2L82.9,458z"/>
<path class="st0" d="M85.6,427.9l-4.8,1.8l-0.4-0.2c-1.7-0.7-3.7-0.9-5.5-0.5c-0.3,0.1-0.5,0.1-0.8,0.2c-1.2,0.5-2.6,0.6-3.9,0.4
	c-0.9-0.2-3.1-0.7-3.3-2.3c0-0.4,0-0.8,0.2-1.1c-0.1,0-0.1,0-0.2-0.1c-0.6-0.2-1.2-0.5-1.7-0.9c-0.4-0.3-0.8-0.6-1.3-0.8
	c-0.3-0.1-0.5-0.2-0.8-0.3c-0.7-0.3-1.5-0.6-1.7-1.5c-0.1-0.8,0.3-1.7,0.9-2.2c0.5-0.6,1.2-1.2,1.9-1.6c0.2-0.1,0.3-0.2,0.4-0.3
	c0.4-0.4-0.7-2.9-1.2-3.9c-0.9-2.1-1.8-4-0.6-5.1c0.9-0.8,2.3-0.8,4.4,0.2c0.6,0.3,1.1,0.6,1.6,1c0.1-0.4,0.4-0.8,0.8-1.1l0,0
	c1.1-0.6,2.6,0.1,4.3,2.1c0.6,0.7,1.1,1.4,1.5,2.2c0.2,0.4,0.4,0.9,0.5,1.3c0.3-0.1,0.5-0.1,0.8,0c0.9,0.2,1.4,1,1.7,2.3
	c0.2,1.2,0.3,2.5,0.4,3.7c0,0.8,0.1,1.6,0.3,2.3c0.4,1.1,1.5,1.7,2.9,2.4L85.6,427.9z"/>
<path class="st0" d="M82.9,412.9l-0.6-5.1l0.3-0.4c1.1-1.5,1.7-3.3,1.8-5.2v-0.8c-0.1-1.3,0.1-2.7,0.6-3.9c0.4-0.9,1.5-2.8,3.1-2.6
	c0.4,0.1,0.7,0.3,1,0.5c0-0.1,0.1-0.1,0.1-0.2c0.3-0.6,0.8-1,1.3-1.4c0.4-0.3,0.8-0.7,1.1-1.1c0.2-0.3,0.4-0.5,0.5-0.7
	c0.4-0.7,1.1-1.2,1.9-1.3c0.9,0.1,1.6,0.7,1.9,1.5c0.4,0.7,0.8,1.4,1.1,2.2c0.1,0.2,0.1,0.4,0.2,0.4c0.3,0.5,3,0,4.1-0.1
	c2.3-0.4,4.3-0.7,5.1,0.7c0.6,1,0.2,2.4-1.3,4.2c-0.4,0.5-0.9,0.9-1.4,1.3c0.4,0.2,0.7,0.6,0.8,1.1l0,0c0.3,1.2-0.7,2.5-3.1,3.7
	c-0.8,0.4-1.6,0.7-2.5,0.9c-0.5,0.1-0.9,0.1-1.4,0.1c0,0.3-0.1,0.5-0.2,0.8c-0.4,0.8-1.3,1.1-2.6,1c-1.2-0.1-2.5-0.3-3.7-0.6
	c-0.7-0.2-1.5-0.3-2.3-0.3c-1.2,0.1-2,1-3.1,2.2L82.9,412.9L82.9,412.9z"/>
<path class="st0" d="M88.1,511.3l-1.1-0.7l-0.3-1.2l0.3,1.2l-1.2,0.1c0-0.1-0.1-0.4-0.2-0.8c-1.6-6.6-2.8-13.3-3.7-20
	c-1-7.7-1.5-15.4-1.7-23.2c-0.1-7.8,0.3-13.7,0.6-18.5c0.2-3.6,0.5-7,0.8-10.3c0.7-8.9,1.4-17.3,0.9-26.5c-0.1-7-3.3-13.7-8.9-18
	l1.6-2c2.7,2.1,5,4.8,6.6,7.8c2,3.7,3.1,7.9,3.2,12.1c0.5,9.4-0.2,17.9-0.9,26.9c-0.3,3.3-0.5,6.7-0.8,10.3
	c-0.3,4.7-0.7,10.6-0.5,18.3c0.1,7.7,0.7,15.3,1.6,22.9c0.8,6.6,2,13.2,3.6,19.7C88.4,510.6,88.4,510.8,88.1,511.3z"/>
<path class="st0" d="M69.1,397.4h-0.3c-2.1-0.1-4.1-1.4-5.9-3.8c-1-1.5-1.7-3.2-2.1-5c-0.5-1.7-0.9-3.4-1.2-5.2
	c-0.3-1.8-0.2-2.6,0.1-3.2c0.4-0.7,1-1.3,1.8-1.6c0-0.2,0-0.5,0.1-0.7c0.4-1,1.6-0.9,2.2-0.8c0.3,0,0.7,0.1,1.1,0.1
	c0.5,0,1.1-0.2,1.5-0.5c0.7-0.4,1.4-0.6,2.1-0.8c1.3-0.3,2.7-0.2,3.9,0.3c2.7,0.9,4,3,5.6,5.4c0.9,1.5,1.6,3,2.1,4.7
	c0.4,1,0.5,2.1,0.3,3.1c-0.3,1.2-1,1.9-2.9,3.4c-1.2,1-2.4,2-3.7,2.9C71.9,396.7,70.7,397.4,69.1,397.4z"/>
<path class="st1" d="M336.3,511H176c-24.1-0.1-43.5-19.5-43.6-43.6V43.6C132.5,19.5,151.9,0.1,176,0h160.3
	c24.1,0.1,43.5,19.5,43.6,43.6c3,170.2,8.1,360.8,0,423.8C379.8,491.5,360.4,510.9,336.3,511z"/>
<path class="st1" d="M382.1,155.9c-1,0-1.8,0.8-1.8,1.8c0,0,0,0,0,0v59c0,1,0.8,1.8,1.8,1.8c1,0,1.8-0.8,1.8-1.8v-59
	c0.1-0.9-0.6-1.7-1.6-1.8C382.3,155.9,382.2,155.9,382.1,155.9z"/>
<path class="st2" d="M364.8,48.9l10.9,418.5c0,20.8-16.2,38-36.9,39.4h-2.5c0,0-2-0.1-5.7-0.4s-9.2-0.7-16-1.2
	c-2-0.2-4.2-0.3-6.5-0.5c-4.5-0.4-9.5-0.8-14.8-1.2l-6.6-0.6c-11.5-1-24.3-2.1-37.8-3.4c-2.3-0.2-4.6-0.4-6.9-0.7
	c-0.6-0.1-105.5-26.4-105.5-31.4V43.6c0-21.8,17.7-39.5,39.5-39.5h23.6c3.8,0,6.9,2.9,7.1,6.7c0,0.2,0.1,0.5,0.1,0.7
	c0.8,3.8,4.1,6.5,8,6.4h82.8c3.9,0.1,7.2-2.6,8-6.4c0-0.2,0.1-0.5,0.1-0.7c0.2-3.8,3.3-6.7,7.1-6.7h23.6
	C358.1,4.1,364.8,27.1,364.8,48.9L364.8,48.9z"/>
<path class="st1" d="M131.5,111.6c-1,0-1.8,0.8-1.8,1.8c0,0,0,0,0,0v14.8c0,1,0.8,1.8,1.8,1.8s1.8-0.8,1.8-1.8v-14.8
	C133.3,112.4,132.5,111.6,131.5,111.6C131.5,111.6,131.5,111.6,131.5,111.6z"/>
<path class="st1" d="M131.5,155.9c-1,0-1.8,0.8-1.8,1.8c0,0,0,0,0,0v28.6c0,1,0.8,1.8,1.8,1.8s1.8-0.8,1.8-1.8v-28.6
	C133.3,156.7,132.5,155.9,131.5,155.9C131.5,155.9,131.5,155.9,131.5,155.9z"/>
<path class="st1" d="M131.5,196.5c-1,0-1.8,0.8-1.8,1.8c0,0,0,0,0,0v28.6c0,1,0.8,1.8,1.8,1.8s1.8-0.8,1.8-1.8v-28.6
	C133.3,197.3,132.5,196.5,131.5,196.5C131.5,196.5,131.5,196.5,131.5,196.5z"/>
<path class="st3" d="M583,511.2L583,511.2c0,0.4-0.3,0.8-0.8,0.8c0,0,0,0,0,0H0v-1.7h582.2C582.7,510.3,583,510.7,583,511.2
	C583,511.2,583,511.2,583,511.2z"/>
<path class="st2" d="M341.8,480.4H165.7c-7.1,0-12.9-16.2-12.9-36.1V71c0-19.9,5.8-36.1,12.9-36.1h176.2c7.1,0,12.9,16.2,12.9,36.1
	v373.4C354.7,464.3,348.9,480.4,341.8,480.4z"/>
<path class="st1" d="M341.8,480.4H165.7c-7.1,0-12.9-16.2-12.9-36.1V71c0-19.9,5.8-36.1,12.9-36.1h176.2c7.1,0,12.9,16.2,12.9,36.1
	v373.4C354.7,464.3,348.9,480.4,341.8,480.4z M165.7,40.9c-5.9,0-10.7,13.5-10.7,30v373.4c0,16.6,4.8,30,10.7,30h176.2
	c5.9,0,10.7-13.5,10.7-30V71c0-16.6-4.8-30-10.7-30L165.7,40.9z"/>
<path class="st3" d="M171.1,217c-0.9,0-1.6,2-1.6,4.5c0,1.1,0.2,2.2,0.5,3.2c0.3,0.9,0.7,1.3,1.1,1.3h166.4c0.9,0,1.6-2,1.6-4.5
	c0-1.1-0.2-2.2-0.5-3.2c-0.3-0.9-0.7-1.3-1.1-1.3H171.1z"/>
<path class="st4" d="M307.4,215.5v12H171.1c-0.6,0-1.1-0.7-1.5-1.8c-0.4-1.4-0.6-2.8-0.6-4.2c0-3.3,1-6,2.1-6H307.4z"/>
<path class="st3" d="M334.8,193h-21.5c-2.4,0-4.3-5.4-4.3-12s1.9-12,4.3-12h21.5c2.4,0,4.3,5.4,4.3,12S337.2,193,334.8,193z"/>
<path class="st3" d="M194.1,129.7h-21.5c-2.4,0-4.3-5.4-4.3-12s1.9-12,4.3-12h21.5c2.4,0,4.3,5.4,4.3,12S196.5,129.7,194.1,129.7z"
	/>
<path class="st3" d="M171.1,352.5c-0.9,0-1.6,2-1.6,4.5c0,1.1,0.2,2.2,0.5,3.2c0.3,0.9,0.7,1.3,1.1,1.3h166.4c0.9,0,1.6-2,1.6-4.5
	c0-1.1-0.2-2.2-0.5-3.2c-0.3-0.9-0.7-1.3-1.1-1.3H171.1z"/>
<path class="st4" d="M224.7,351v12H171c-0.6,0-1.1-0.7-1.5-1.8c-0.4-1.4-0.6-2.8-0.6-4.2c0-3.3,1-6,2.1-6H224.7z"/>
<path class="st3" d="M334.8,328.4h-21.5c-2.4,0-4.3-5.4-4.3-12s1.9-12,4.3-12h21.5c2.4,0,4.3,5.4,4.3,12S337.2,328.4,334.8,328.4z"
	/>
<polygon class="st5" points="458.6,609.8 478.4,616.1 453.1,674.5 439.7,670.2 "/>
<path class="st6" d="M462,656.4l-7.9,0.5l-1.6,4.1c0,0,0.2-5.3-8.1-9.7l-2.6,3.5c0,0-4.9,2.6-7,9.8l-5,19.6l6.6,2.4l6.1-12.6
	c0,0,2.9-2.3,5.9,15c0,0,8.3,5.8,24.3,6.5c2.2,0.1,4.2-1.2,5-3.3c0.6-1.2,0.2-2.6-0.9-3.3c-3.3-2.3-7.3-2.5-8.5-6.3
	S462,656.4,462,656.4z"/>
<polygon class="st5" points="321.6,599.6 301.5,604.8 323.3,664.5 336.9,661 "/>
<path class="st6" d="M315.5,645.9l7.8,1l1.3,4.2c0,0,0.1-5.3,8.7-9.2l2.3,3.7c0,0,4.7,2.9,6.4,10.2l3.8,19.9l-6.7,2l-5.3-13
	c0,0-2.8-2.4-6.7,14.6c0,0-8.6,5.3-24.6,5.1c-2.2,0-4.2-1.5-4.8-3.6c-0.5-1.2,0-2.6,1.1-3.2c3.4-2.2,7.4-2.1,8.8-5.8
	S315.5,645.9,315.5,645.9L315.5,645.9z"/>
<rect x="371.1" y="280.5" class="st6" width="53.7" height="79.3"/>
<polygon class="st5" points="415.6,415.5 413.9,458 361.1,454 367.5,412.3 "/>
<path class="st6" d="M357.1,438.8l76.1,2.4l19,26.9l-8.8,47.3c0,0-38.2-10.9-101.5,2l4-44.1l12.2-12.2L357.1,438.8z"/>
<path class="st6" d="M439.6,470.8l20.8,8.8c0,0,39.3,17.6,41.7,41.7c2.4,24.1-26.2,113.8-26.2,113.8l-31.4,1.9c0,0,9.3,6.5,9.3-38
	c0-31,13.8-60.8,13.8-60.8s-20-36.9-71.3-28c0,0-56-1.8-82.5,31.8c0,0,14,30,15,48l4.1,39l-26.4,2.4c0,0-38.4-102.8-21.6-123.6
	s52.9-32.9,52.9-32.9L439.6,470.8L439.6,470.8z"/>
<polygon class="st5" points="412.7,335.6 410.8,312.9 385.8,312.9 380.3,337 "/>
<polygon class="st7" points="412.7,335.6 410.8,312.9 385.8,312.9 380.3,337 "/>
<path class="st5" d="M421.7,292.8c0,15.1-12.2,27.3-27.3,27.3s-27.3-12.2-27.3-27.3c0-15.1,12.2-27.3,27.3-27.3h0
	C409.5,265.5,421.7,277.7,421.7,292.8C421.7,292.8,421.7,292.8,421.7,292.8z"/>
<path class="st4" d="M380.3,332.2h32.1l4,8.8l4,88.9c0,0-30.5-7.2-56.9-6.4l6.4-80.9l8-4.8L380.3,332.2z"/>
<path class="st6" d="M410.7,513.3c0,0,16-36.1,22.4-36.9s20.9,0,20.9,0l-3.2-5.6c0,0-0.8-11.2-8.8-11.2s-4.8-115.4-4.8-115.4
	l-22.4-6.8c0,0-12.8,39.6-12.8,77.3s-1.6,79.3-1.6,79.3L410.7,513.3L410.7,513.3z"/>
<path class="st6" d="M378.8,335.6l-28.2,7.8l3.2,110.6l-18.4,22.4c0,0,24,0,29.6,20c0,0,6.7,11,13.7,9.9s2.3-23.5,2.3-23.5l-7.2-28
	l0.8-47.3L378.8,335.6z"/>
<path class="st6" d="M387.5,264.1c0,0,0-11.2,10.4-8.8c10.4,2.4,13.6,6.4,13.6,6.4s4,6.4,10.4,7.2s12,19.2,11.2,23.2
	s-4.8,14.4,0.8,19.2s13.6,12,11.2,19.2s-9.6,25.6-9.6,25.6s20.1,2.9,18.5,15.5c0,0-9.7-7.5-22.5-7.5S420.4,341,420.4,341
	s-0.8-14.4-3.2-18.4s0.8-26.4-11.2-38.5S387.5,264.1,387.5,264.1z"/>
<path class="st6" d="M390.7,261.7c0,0-15.2,3.2-20.8,18.4s-2.8,18.1-2.8,18.1s-1.2,9.2-8,12.4s-1.2,16.8-1.2,16.8
	s-1.6,13.6-23.2,18.4s-16.8,32.9-16.8,32.9s17.6-24.8,40.1-25.6s18.4-25.6,18.4-25.6l-2.4-26.4c0,0,4.8-30.5,19.2-34.5
	S390.7,261.7,390.7,261.7z"/>
<path id="uuid-cac2eb5b-24ea-45f6-922f-e2b1ec3fbeeb-2478" class="st5" d="M412.4,515.2c-0.6,7.5,2.7,13.8,7.4,14.2
	s9.1-5.3,9.7-12.8c0.3-3-0.1-6-1.2-8.8l2.3-31.6l-14.9-0.8l-0.7,31.3C413.6,509.3,412.7,512.2,412.4,515.2L412.4,515.2z"/>
<path id="uuid-f52766af-11e7-4213-b1b4-c8e9d82d1748-2479" class="st5" d="M354.8,516c-0.6,7.5,2.7,13.8,7.4,14.2s9.1-5.3,9.7-12.8
	c0.3-3-0.1-6-1.2-8.8L373,477l-14.9-0.8l-0.7,31.3C355.9,510.1,355,513,354.8,516z"/>
<path class="st6" d="M431.2,344.6c0,0,20-5.6,24,7.2s-8.4,83.3-8.4,83.3l-11.6,73.7l-24.8-4.8l16-98.6L431.2,344.6L431.2,344.6z"/>
<path class="st6" d="M370.8,343.6c0,0-19.4-7.5-24.6,4.9s0.5,83.8,0.5,83.8l4.6,74.5l25.2-2.4l-6.6-99.6L370.8,343.6L370.8,343.6z"
	/>
<rect x="42" y="536" class="st8" width="243" height="143"/>
</svg>
