<?xml version="1.0" encoding="utf-8"?>
<!-- Generator: Adobe Illustrator 24.1.1, SVG Export Plug-In . SVG Version: 6.00 Build 0)  -->
<svg version="1.1" id="Capa_1" xmlns="http://www.w3.org/2000/svg" xmlns:xlink="http://www.w3.org/1999/xlink" x="0px" y="0px"
	 viewBox="0 0 709.2 453.8" style="enable-background:new 0 0 709.2 453.8;" xml:space="preserve">
<style type="text/css">
	.st0{fill:#E6E6E6;}
	.st1{fill:#FFFFFF;}
	.st2{fill:#FFDC1F;}
	.st3{fill:#EAA508;}
	.st4{fill:#DF622D;}
	.st5{fill:#2F2E41;}
	.st6{fill:#FFB6B6;}
	.st7{fill:#FFB8B8;}
	.st8{fill:#3F3D56;}
	.st9{fill:none;}
</style>
<path class="st0" d="M163.5,273.3l0.6-229.9c0-9.7,7.9-17.5,17.6-17.5c0,0,0,0,0,0l173.6,0.5c9.7,0,17.5,7.9,17.5,17.6c0,0,0,0,0,0
	l-0.6,230c0,9.7-7.9,17.5-17.6,17.5c0,0,0,0,0,0L181,291C171.3,290.9,163.5,283,163.5,273.3z"/>
<path class="st1" d="M177,217.2l0.4-147.8c0-9.1,7.4-16.4,16.5-16.4c0,0,0,0,0,0l149.2,0.4c9.1,0,16.4,7.4,16.4,16.5c0,0,0,0,0,0
	l-0.6,204.6c0,9.1-7.4,16.4-16.5,16.4c0,0,0,0,0,0l-92.4-0.3C209.6,290.4,176.9,257.6,177,217.2z"/>
<path class="st2" d="M326.4,168.4H210c-3.9,0-7-3.1-7-7s3.1-7,7-7h116.4c3.9,0,7,3.1,7,7S330.3,168.4,326.4,168.4z"/>
<path class="st3" d="M235.6,130.1H210c-3.9,0-7-3.1-7-7s3.1-7,7-7h25.6c3.9,0,7,3.1,7,7S239.5,130.1,235.6,130.1z"/>
<path class="st2" d="M326.4,229.8H210c-3.9,0-7-3.1-7-7s3.1-7,7-7h116.4c3.9,0,7,3.1,7,7S330.3,229.8,326.4,229.8z"/>
<path class="st2" d="M326.4,199.1H210c-3.9,0-7-3.1-7-7s3.1-7,7-7h116.4c3.9,0,7,3.1,7,7S330.3,199.1,326.4,199.1z"/>
<circle class="st4" cx="29.5" cy="332.3" r="27.8"/>
<path class="st1" d="M26.8,346.8c-1,0-1.9-0.5-2.5-1.2l-7.6-10.1c-1-1.4-0.8-3.3,0.6-4.3c1.4-1,3.3-0.8,4.3,0.6l0,0l0,0l5,6.6
	l12.7-19.1c0.9-1.5,2.8-2,4.3-1.1c1.5,0.9,2,2.8,1.1,4.3c-0.1,0.1-0.1,0.2-0.2,0.2l0,0l-15.2,22.7C28.8,346.3,27.8,346.8,26.8,346.8
	z"/>
<path class="st5" d="M30.5,295.3h-2v-11.5h2V295.3z M30.5,272.3h-2v-11.5h2V272.3z M30.5,249.4h-2v-11.5h2V249.4z M30.5,226.5h-2
	V215h2V226.5z M30.5,203.6h-2v-11.5h2V203.6z"/>
<polygon class="st5" points="31.5,183 29.5,183 29.5,176 36.5,176 36.5,178 31.5,178 "/>
<path class="st5" d="M139.2,179.5h-11.8v-2h11.8V179.5z M115.6,179.5h-11.8v-2h11.8L115.6,179.5z M92,179.5H80.2v-2H92V179.5z
	 M68.4,179.5H56.6v-2h11.8V179.5z"/>
<rect x="142.6" y="177.5" class="st5" width="6" height="2"/>
<rect x="669" y="312.3" class="st5" width="2" height="6"/>
<path class="st5" d="M672,258.5h-2v-13.1h2V258.5z M672,232.3h-2v-13.1h2V232.3z"/>
<path class="st5" d="M627,176h-12.4v-2H627V176z M602.1,176h-12.4v-2h12.4L602.1,176z M577.3,176h-12.4v-2h12.4L577.3,176z
	 M552.4,176H540v-2h12.4L552.4,176z M527.6,176h-12.5v-2h12.4L527.6,176z M502.7,176h-12.4v-2h12.4V176z M477.8,176h-12.4v-2h12.4
	V176z M453,176h-12.4v-2H453V176z M428.1,176h-12.4v-2h12.4V176z"/>
<rect x="397.1" y="175" class="st5" width="6" height="2"/>
<circle class="st4" cx="671" cy="356" r="27.8"/>
<path class="st1" d="M676.4,356l5.5-5.5c1.5-1.6,1.4-4-0.1-5.5c-1.5-1.4-3.9-1.4-5.4,0l-5.5,5.5l-5.5-5.5c-1.6-1.5-4-1.4-5.5,0.1
	c-1.4,1.5-1.4,3.9,0,5.4l5.5,5.5l-5.5,5.5c-1.5,1.6-1.4,4,0.1,5.5c1.5,1.4,3.9,1.4,5.4,0l0,0l5.5-5.5l5.5,5.5c1.6,1.5,4,1.4,5.5-0.1
	c1.4-1.5,1.4-3.9,0-5.4l0,0L676.4,356z"/>
<polygon class="st5" points="593,189.8 599,225.4 656,194.8 "/>
<polygon class="st6" points="586.2,411.2 574.3,410.7 570.5,364.4 588.1,365.1 "/>
<path class="st5" d="M587,278.8c21.7-6.6,26.1-34.8,38-41c0-14.9,0.6-61.2-14.3-60.3c-8.3,0.5-54.5,85-56.5,99
	c-3.7,26,15.9,92.3,13.7,96.9l22.8,1.4l0.1-1.8c0.4-4.9,4-19.5-0.1-22.1l-1.6-1l0,0c0-5.1,1.1-13.7-3.4-15.9l0,0
	c-0.2-0.1-0.3-0.4-0.2-0.6l0,0L587,278.8z"/>
<path class="st5" d="M592.4,421.6l-8,0.5l-1.9-7.5l-3.2,7.8l-21.2,1.2c-2.6,0.2-4.8-1.8-5-4.4c0,0,0,0,0-0.1c-0.1-1.6,0.6-3.1,1.8-4
	l16.2-12.7l-0.4-7.6h17.9L592.4,421.6z"/>
<polygon class="st6" points="677.2,327.8 689.1,328.7 698.5,283.3 681,281.8 "/>
<path class="st5" d="M672.6,212.5c-10.7,18.8-29.8,23.3-49.6,26.5c-8.6-12.2-21.8-29.1-9.1-37c7-4.4,68.1-40,77.5-29.5
	c24.6,27.5,7,116.2,8.6,114.2l-19.5-0.3l-1.1-1.4c-3.1-3.7-3.9-8.9-2-13.4l0.7-1.7l0,0c-2.9-4.1-3.3-9.6-0.8-14l0.2-0.4L672.6,212.5
	z"/>
<path class="st5" d="M676.9,311.2l17.7,2.2l-1.4,7.5l14.6,14.6c1.9,1.8,1.9,4.7,0.1,6.6c0,0-0.1,0.1-0.1,0.1
	c-1.1,1.1-2.7,1.6-4.2,1.3l-20.9-3.8l-2.2-8.1l-2.8,7.2l-7.9-1.4L676.9,311.2z"/>
<path class="st3" d="M630.6,62.8h-8.2c-3.4,0-6.5,1.6-8.5,4.4l-5.9,8.6l-14.7,2.7c-10.6,6.5-15,19.6-10.6,31.2
	c10.4,27.3,15.5,78.5,5.3,101.1c0,0,61.5,5.6,77-13s3-109,3-109l-23-13l-5.9-8.6C637.2,64.4,634,62.8,630.6,62.8z"/>
<path class="st6" d="M668.8,222.5c2.6-2.7,2.5-7-0.2-9.6c0,0,0,0-0.1-0.1c-0.3-0.3-0.6-0.5-0.9-0.8l13.5-44.3l-15-9l-8.3,55.6
	c-1.9,3.3-0.7,7.5,2.6,9.4C663.1,225.4,666.7,224.9,668.8,222.5L668.8,222.5z"/>
<path class="st3" d="M682,172.8l-18-7l0.8-9L643.4,110c-4-8.7-0.1-19,8.6-23c1-0.4,2-0.8,3-1l0,0c9.3-2.3,18.7,3.3,21,12.6
	c0,0,0,0,0,0l14.1,56.2C691.7,163.5,689.8,170,682,172.8z"/>
<path class="st5" d="M657.1,35.5c0-16.9-13.6-30.6-30.5-30.6c-16.9,0-30.6,13.6-30.6,30.5l0,0v19.2c0,2.2,1.8,4.1,4,4.1
	c0,0,0.1,0,0.1,0h0.8c0.9-2.5,1.4-5.1,1.6-7.7c1.6,2.4,2.8,5,3.6,7.7h47c2.2,0,4.1-1.8,4.1-4c0,0,0-0.1,0-0.1
	C659.6,49.6,660.7,43.8,657.1,35.5z"/>
<circle class="st7" cx="625.3" cy="36.2" r="22.4"/>
<path class="st5" d="M602.3,36.1c-0.4-0.5-0.6-1.2-0.5-1.8l2.7-18.5c0.1-0.8,0.6-1.4,1.3-1.7c12.9-6.3,27.9-6.3,40.8,0
	c0.7,0.4,1.2,1.1,1.3,1.9l2.8,14.5c0,0.7-0.2,1.3-0.6,1.8c-0.4,0.5-1,10.9-1.7,10.9c0.5-6.2-0.8-9.2-5.5-6.1c-0.9,0-1.7-0.5-2.1-1.3
	l-1.9-4.2c-0.3-0.7-1.1-1-1.8-0.7c0,0,0,0,0,0c-0.4,0.2-0.7,0.6-0.8,1.1l-0.4,3.1c-0.1,1.2-1.1,2-2.3,2c-7.9,3.9-18.3,2.9-29.6,0
	C603.4,36.9,602.8,36.6,602.3,36.1z"/>
<path class="st8" d="M643.2,160.7h-36.7c-2.6,0-4.7-2.1-4.7-4.7c0,0,0,0,0,0v-39.5c0-2.6,2.1-4.7,4.7-4.7c0,0,0,0,0,0h36.7
	c2.6,0,4.7,2.1,4.7,4.7c0,0,0,0,0,0V156C647.9,158.6,645.8,160.7,643.2,160.7C643.2,160.7,643.2,160.7,643.2,160.7z"/>
<circle class="st0" cx="607.5" cy="117.5" r="2.7"/>
<circle class="st8" cx="607.5" cy="117.5" r="1.6"/>
<path class="st7" d="M649.7,134.1c-3.1,3.4-8.4,3.7-11.8,0.6c-0.4-0.3-0.7-0.7-1-1.1l-32.9,9.1l-5-11l39.8-10.2
	c3.8-2.6,9.1-1.6,11.6,2.3C652.6,127,652.3,131.2,649.7,134.1z"/>
<path class="st3" d="M607.9,143l-9.2,2.9c-10,10.6-13.6,2.9-25.4,2.1c-2.2-0.1-4-2-5.2-5.4c-1.6-4.9-1.5-10.2,0.5-14.9L585,86.6
	l6.9-5.6l9.6,11.5l-7.4,31.7l12.1,6.2L607.9,143z"/>
<rect x="178.8" y="304.7" class="st9" width="300.6" height="98"/>
<path class="st5" d="M672,304.5h-2v-13.1h2V304.5z M672,278.3h-2v-13.1h2V278.3z"/>
</svg>
