<?xml version="1.0" encoding="utf-8"?>
<!-- Generator: Adobe Illustrator 24.1.1, SVG Export Plug-In . SVG Version: 6.00 Build 0)  -->
<svg version="1.1" id="Capa_1" xmlns="http://www.w3.org/2000/svg" xmlns:xlink="http://www.w3.org/1999/xlink" x="0px" y="0px"
	 viewBox="0 0 740.7 597.2" style="enable-background:new 0 0 740.7 597.2;" xml:space="preserve">
<style type="text/css">
	.st0{fill:#E6E6E6;}
	.st1{fill:#FFCD36;}
	.st2{fill:#EAD108;}
	.st3{fill:#2F2E41;}
	.st4{fill:#FFDC1F;}
	.st5{fill:#DF622D;}
	.st6{fill:#CCCCCC;}
	.st7{fill:#3F3D56;}
	.st8{fill:#0C0D08;}
</style>
<path class="st0" d="M421.9,528.3c-5.1-7.2-12.1-12.4-20.8-14.4c-7.6-1.7-15.4-1.4-23.1-1.4l-97.7,0.8c-8.4,0.1-16.4,7.3-16,16
	c0.4,8.6,7,16.1,16,16c28.6-0.2,57.2-0.4,85.9-0.7c6.7-0.1,13.5-0.2,20.2-0.2c1.5,0,3,0.1,4.5,0.1c0.4,0,0.6,0,0.8,0
	c0,0,0.1,0,0.1,0c0.8,0.2,1.6,0.4,2.4,0.6c-0.3,0,0.5,0.5,0.9,0.7c0.1,0.1,0.2,0.3,0.4,0.6c0.3,0.5,1.1,2.1,1.1,2
	c1.2,3.1,2.2,6.2,3,9.4c1.9,7,2.3,8.5,2.5,15.1c0.3,8.4,7.1,16.4,16,16c8.4-0.4,16.4-7,16-16C433.6,557.9,431,541,421.9,528.3z"/>
<path class="st0" d="M286.1,564.4c-1.8-11.1-3.6-22.2-5.5-33.4c-1.9-11.3-5.8-21.6-14.5-29c-2.3-2-4.8-3.8-7.2-5.7
	c-0.9-0.6-1.7-1.3-2.6-2c-0.1,0-0.1-0.1-0.1-0.1c-0.1-0.1-0.2-0.2-0.4-0.3c-3.7-3.1-7.2-6.3-10.6-9.8c-3-3.1-5.8-6.2-8.6-9.5
	c-0.7-0.8-1.4-1.7-2-2.5c-0.1-0.1-0.7-0.9-1.1-1.5c-0.4-0.5-1.1-1.5-1.2-1.6c-0.8-1.1-1.5-2.2-2.3-3.3c-5.1-7.6-9.5-15.7-13.2-24.1
	c-0.4-0.8-0.7-1.7-1.1-2.5c-0.1-0.3-0.2-0.6-0.4-1c-0.7-2-1.5-4.1-2.2-6.1c-1.4-4.4-2.7-8.8-3.7-13.3c-0.5-2.2-1-4.5-1.4-6.7
	c-0.2-1.2-0.4-2.3-0.6-3.5c0-0.2-0.2-1.4-0.3-2.2c-0.1-0.7-0.2-2-0.2-2.2c-0.1-1.2-0.2-2.3-0.3-3.5c-0.2-2.6-0.3-5.3-0.4-7.9
	c-0.1-4.7,0-9.4,0.3-14.1c0.2-2.6,0.4-5.3,0.7-7.9c0-0.2,0-0.3,0-0.4c0-0.1,0-0.3,0.1-0.4c0.2-1.5,0.4-2.9,0.7-4.4
	c1-5.5,2.2-10.9,3.7-16.3c0.7-2.5,1.5-5.1,2.4-7.6c0.4-1.1,0.8-2.2,1.2-3.3c0,0.1,1.2-3,1.2-3.1c4.8-11.3,12.6-21.7,12.6-34.5
	c0-8.7-7.4-17.1-16-16.7c-8.9,0.3-16,7.7-16,16.7c0,0.2,0,0.4,0,0.5c-0.1,0.3-0.1,0.5-0.2,0.7c-0.9,2-2.1,4-3.1,5.9
	c-2.8,5.4-5.2,11-7.5,16.7c-3.7,9.3-6.6,18.8-8.5,28.6c-4.2,21.4-4.6,43.5-1,65c6.2,37.8,26.7,74,55.1,98.3c2.5,2.1,5,4.2,7.5,6.2
	c1.1,0.8,2.1,1.6,3.2,2.4c0.5,0.4,2.6,2,1.7,1.2c2,1.7,2.8,2.5,3.3,3.8c0.1,0.3,0.2,0.7,0.3,1.2c0.4,1.4,0.7,2.8,1,4.2
	c2.5,12.5,4.2,25.1,6.3,37.6c1.4,8.6,12,14.2,19.7,11.6C283.8,581.9,287.6,573.6,286.1,564.4z"/>
<path class="st1" d="M423.6,596.7c-14,0-25.4-11.3-25.4-25.3v-18.3c-19.1,2.1-84.5,1.6-103.3-1.4v18.9
	c-0.1,14.1-11.6,25.4-25.6,25.2c-13.9-0.1-25.1-11.3-25.2-25.2v-37.1c-51.7-28.7-83.9-83.2-84-142.4c0-49.8,22.6-96.3,62-127.5
	c25.6-20.4,56.7-32.6,89.3-35.2c4.4-0.3,8.9-0.5,13.2-0.5c15.4,0,84.6,2.4,102,7.4l39.6-39.3c1.2-1.2,3-1.6,4.5-0.9
	c1.6,0.6,2.6,2.2,2.6,3.8v6.3l7.7-7.6c1.2-1.2,3-1.6,4.5-0.9c1.6,0.6,2.6,2.2,2.6,3.8v69.9c66.8,60.2,72.1,163.1,11.9,229.9
	c-14.3,15.9-31.7,28.8-51,38v33.2C448.9,585.4,437.6,596.7,423.6,596.7z M400.1,550.9v20.5c0.1,12.9,10.7,23.4,23.6,23.2
	c12.8-0.1,23.1-10.5,23.2-23.2V537l0.6-0.3c27.1-12.9,50.2-33,66.5-58.2c43.1-66.4,31.3-154.3-27.7-207l-0.3-0.3v-70.8
	c0-0.9-0.5-1.7-1.3-2c-0.8-0.3-1.8-0.2-2.4,0.5l-11.1,11v-11c0-0.9-0.5-1.7-1.3-2c-0.8-0.3-1.8-0.2-2.4,0.5L427,237.7l-0.6-0.2
	c-16.2-5.1-86.5-7.5-102-7.5c-4.3,0-8.7,0.2-13.1,0.5c-32.2,2.5-62.9,14.6-88.2,34.7c-38.9,30.8-61.2,76.8-61.2,126
	c0.1,58.7,32.1,112.6,83.5,140.9l0.5,0.3v38.3c0.1,12.9,10.7,23.4,23.6,23.2c12.8-0.1,23.1-10.5,23.2-23.2v-21.3l1.2,0.2
	c16.9,3.2,87.8,3.7,105,1.4L400.1,550.9z"/>
<path class="st2" d="M288,119.1l-110.7,33.3c-7.3,2.2-11.5,10-9.3,17.3c2.2,7.3,9.9,11.5,17.3,9.3l96.9-29.1l2-0.6
	c0.4-10.5,3.2-20.7,8.3-29.9c-0.6-0.3-1.3-0.5-2-0.5C289.6,118.8,288.8,118.9,288,119.1z"/>
<path class="st3" d="M183.3,186.1c-3,0-5.7-1.9-6.6-4.8l-6.9-20.9c-1.2-3.7,0.8-7.6,4.4-8.8c0,0,0,0,0,0l90.1-29.9
	c3.7-1.2,7.6,0.8,8.8,4.4c0,0,0,0,0,0l6.9,20.9c1.2,3.6-0.7,7.5-4.2,8.8c-0.1,0-0.2,0.1-0.3,0.1l-90.1,29.9
	C184.8,186,184.1,186.1,183.3,186.1z"/>
<path d="M352.1,82c-37.8,0-68.8,30.1-70,67.8c0,0.7,0,1.4,0,2.1c0,38.7,31.3,70,70,70s70-31.3,70-70S390.8,82,352.1,82L352.1,82
	L352.1,82z M352.1,220c-37.5,0-68-30.5-68-68c0-0.9,0-1.9,0.1-2.8c1.5-37.5,33.2-66.7,70.7-65.2s66.7,33.2,65.2,70.7
	C418.6,191.2,388.6,220,352.1,220L352.1,220z"/>
<path class="st4" d="M411.1,152c0,32.6-26.4,59-59,59s-59-26.4-59-59c0-1.9,0.1-3.7,0.3-5.5c3.1-32.4,31.8-56.3,64.3-53.2
	C388,96.1,411.1,121.6,411.1,152z"/>
<path class="st5" d="M369.7,155.9c-1.4-1.9-3.3-3.4-5.5-4.3c-2.7-1.1-5.4-2-8.2-2.7v-16.1c4.3,0.7,8.4,2.5,11.7,5.3l3.3-7
	c-1.9-1.7-4-3-6.4-3.9c-2.6-1-5.3-1.7-8.1-2.1v-8.1H349v8.2c-2.9,0.3-5.7,1.3-8.3,2.8c-2.3,1.3-4.2,3.2-5.6,5.5
	c-1.3,2.2-2,4.7-2,7.3c-0.1,2.8,0.7,5.5,2.3,7.8c1.5,2,3.4,3.5,5.7,4.5c2.7,1.2,5.5,2.1,8.4,2.8v15.4c-5.1-0.4-9.9-2.3-13.9-5.5
	l-3.3,7c2.2,1.8,4.7,3.3,7.4,4.2c3,1.1,6.1,1.7,9.2,1.9v8.1h7.5v-8.2c4.2-0.5,8.1-2.3,11.2-5.1c2.7-2.6,4.3-6.3,4.2-10.1
	C372,160.8,371.3,158.1,369.7,155.9z M349.5,147.2c-1.8-0.6-3.5-1.5-5-2.7c-1.2-1.1-1.8-2.6-1.8-4.2c-0.1-1.8,0.6-3.5,1.8-4.8
	c1.4-1.4,3.1-2.3,5-2.6V147.2z M360.7,168.5c-1.3,1.3-2.9,2.2-4.7,2.5v-13.2c1.7,0.5,3.3,1.3,4.7,2.4c1.1,0.9,1.7,2.3,1.6,3.7
	C362.4,165.5,361.9,167.2,360.7,168.5L360.7,168.5z"/>
<path class="st3" d="M186.5,270.8c-3.2,0-6-2.1-6.8-5.2l-3.8-14.3c-1-3.7,1.2-7.6,5-8.6l118.9-31.4c3.7-1,7.6,1.3,8.6,5l3.2,12.1
	l-0.6,0c-30.5,2.4-59.7,13.4-84.1,31.9l-0.2,0.1l-38.5,10.2C187.7,270.7,187.1,270.8,186.5,270.8z"/>
<path class="st5" d="M166.8,341.3c-14-2.1-27.3-7.1-39.1-14.8c-5.9-3.8-11.3-8.2-16.2-13.2c-4.8-4.9-9.4-10.5-11.8-17.1
	c-2.3-6.1-2.2-12.8,0.3-18.8c2.5-5.9,7.2-10.7,13.2-13.1c6-2.4,13.2-2.6,19.1,0c2.8,1.2,5.2,3.2,7,5.6c0.8,1.1,1.4,2.4,1.8,3.8
	c0.3,1.2,0.4,2.5,0.1,3.8c-0.7,2.5-2.4,4.6-4.8,5.7c-2.5,1.3-5.3,2.1-8.2,2.5c-2.9,0.4-7,0.7-9.3-1.6c-0.5-0.5-0.8-1-1.1-1.6
	c-0.2-0.5-0.2-1-0.2-1.5c0,0.2,0.1-0.5,0.1-0.4c0,0.1-0.2,0.4,0,0c0.1-0.1,0.1-0.2,0.2-0.4c-0.1,0.1-0.2,0.3,0.1,0
	c0.2-0.3,0.6-0.5,0.9-0.6c0.1,0,0.3-0.1,0.4-0.1c0.4-0.1-0.4,0,0,0c0.1,0,0.3,0,0.4,0c0.4,0-0.3-0.1,0,0c0.1,0,0.3,0.1,0.4,0.1
	c0.3,0.1-0.2-0.2,0,0c0.2,0.3-0.2-0.3,0,0c0.1,0.1,0.2,0.3,0.4,0.4c0.9,0.9,2.4,0.9,3.3,0c0.9-0.9,0.9-2.4,0-3.3
	c-2.3-2.9-6.9-2.2-9.2,0.3c-3,3.1-1.8,8,1.1,10.7c3.3,3.1,7.9,3.3,12.2,2.8c3.6-0.3,7-1.3,10.3-2.9c3.2-1.6,5.7-4.3,7-7.6
	c1.2-3.6,0.8-7.5-1.1-10.8c-3.7-7-11.5-10.6-19.1-11.2c-7.9-0.6-15.8,2-21.8,7.2c-5.7,5.2-9.3,12.4-9.9,20.1c-0.7,8,2.4,15.8,7,22.2
	c4.7,6.6,10.4,12.4,16.8,17.4c12.5,10,27.2,16.9,42.8,20.2c1.9,0.4,3.7,0.7,5.6,1c1.2,0.3,2.5-0.4,2.9-1.6
	C168.8,342.9,168.1,341.6,166.8,341.3L166.8,341.3z"/>
<path class="st6" d="M390.2,239.4c-20.4-0.3-40.8,0.2-61.1,1.6c-6.9,0.5-13,2.9-13,7c0,3.4,6,7.5,13,7c20.3-1.3,40.7-1.8,61.1-1.6
	C406.9,253.7,406.9,239.6,390.2,239.4z"/>
<path class="st1" d="M360,252.7c-2.2,0-54.1-0.1-54.1-7.3c0-7.2,51.9-7.3,54.1-7.3s54.1,0.1,54.1,7.3
	C414.1,252.7,362.2,252.7,360,252.7z M307.9,245.5c1.4,2.2,20.5,5.3,52.1,5.3s50.7-3.1,52.1-5.3c-1.4-2.2-20.5-5.3-52.1-5.3
	S309.4,243.3,307.9,245.5L307.9,245.5z"/>
<path class="st4" d="M524.7,441.2c11.5-0.3,25.8-0.7,36.8-8.8c6.6-5,10.7-12.8,11.1-21.1c0.2-6.4-2.1-11.9-6.5-15.6
	c-5.8-4.9-14.2-6-23.2-3.3l9.4-68.5l-6.9-0.9l-11,80.6l5.8-2.6c6.7-3.1,15.8-4.6,21.5,0.2c2.8,2.5,4.3,6.3,4,10.1
	c-0.3,6.2-3.4,11.9-8.3,15.7c-8.6,6.3-20,7.1-32.9,7.4L524.7,441.2z"/>
<rect x="468.2" y="329.7" width="37.4" height="7"/>
<path class="st3" d="M203.5,302.7c-3.4,0-6.4-2.5-6.9-5.9l-2.3-14.6c-0.6-3.8,2-7.4,5.8-8l121.5-19c3.8-0.6,7.4,2,8,5.8l2.3,14.6
	c0.6,3.8-2,7.4-5.8,8l-121.5,19C204.2,302.7,203.9,302.7,203.5,302.7z"/>
<circle class="st1" cx="153.2" cy="80.9" r="51"/>
<path class="st5" d="M147.9,57.9c7.5-7.1,17.7-0.8,26.3-1.9c8.2-1.1,14.7-9.2,16.3-17.9c1.9-10.1-2.8-20.2-9.8-26.5
	c-7.6-6.9-17.7-8.9-27.3-7.6c-11,1.5-21,7.1-30,14c-8.7,6.4-16.7,13.9-23.8,22.4C93.1,48.3,87.7,57.7,86,68.2
	c-1.6,9.6-0.4,20.2,4.7,28.3c2.7,4.2,6.3,7.5,10.5,9.6c4.4,2.4,9.1,4.1,13.3,6.8c6.4,4.1,12.6,12.5,10.6,21.3
	c-0.4,1.9-1.3,3.7-2.5,5.2c-1.4,1.8-4-0.6-2.6-2.3c2.5-3.1,2.4-7.3,1.1-11c-1.6-4.2-4.4-7.6-8-9.8c-4.4-2.8-9.3-4.6-13.9-7.1
	c-4.4-2.3-8.1-5.8-11-10.1c-5.4-8.4-7.1-19.3-5.8-29.4c1.3-10.9,6.4-20.9,12.8-29.2c6.9-9.1,15.4-16.7,24.1-23.6
	c9.3-7.4,19.6-13.7,31-15.9c9.9-2,20.6-0.8,29.2,5.2c8.1,5.6,14.2,15.1,14.8,25.8c0.4,9.9-4,19.3-11.5,24.6
	c-3.8,2.5-8.3,3.7-12.7,3.3c-4.7-0.3-9.5-1.9-14.3-1.5c-2.2,0.1-4.2,1.1-5.9,2.6C148.3,62.5,146.3,59.4,147.9,57.9L147.9,57.9z"/>
<path class="st3" d="M182.1,94.1c1.6-0.6,3.1-1.5,4.4-2.7c1.7-1.7,2.5-4.1,2.3-6.5c-0.1-1.7-1.1-3.2-2.5-4.2c-1.8-1.1-4.3-1.1-6.7,0
	l-0.3-19.9l-2,0l0.3,23.4l1.5-1c1.8-1.2,4.3-2,6.1-0.9c0.9,0.6,1.5,1.6,1.6,2.7c0.2,1.8-0.4,3.5-1.7,4.8c-2.2,2.2-5.4,2.9-9,3.5
	l0.4,2C178.3,95.2,180.2,94.7,182.1,94.1z"/>
<rect x="189.2" y="60.3" transform="matrix(0.9887 -0.1497 0.1497 0.9887 -6.9803 29.8235)" class="st3" width="10.8" height="2"/>
<rect x="155.6" y="65.4" transform="matrix(0.9887 -0.1497 0.1497 0.9887 -8.1215 24.8473)" class="st3" width="10.8" height="2"/>
<path class="st3" d="M186.9,301.8c-3.8,0-7.1-2.3-8.4-5.9l-35.2-94.2c-8.9-24,3.3-50.8,27.3-59.8l28.6-10.7c2.2-0.8,4.7-0.8,6.9,0.2
	c2.2,1,3.8,2.8,4.7,5l65.1,123c1.8,4.6-0.6,9.8-5.2,11.6c0,0,0,0-0.1,0L190,301.3C189,301.7,188,301.8,186.9,301.8z"/>
<path class="st0" d="M190.5,134.6l64.6,86.4l-43.7-85.5c-1.5-4.2-6.2-6.4-10.3-4.8c0,0,0,0,0,0L190.5,134.6z"/>
<path class="st1" d="M292.8,200.2l-115.4-7.4c-7.6-0.5-13.5-7.1-13-14.7s7.1-13.5,14.7-13c0,0,0,0,0,0l115.4,7.4
	c3.6,0.2,6.3,3.3,6.1,6.9c0,0,0,0,0,0l-0.9,14.7C299.5,197.7,296.4,200.4,292.8,200.2L292.8,200.2z"/>
<path class="st3" d="M262,205c-0.2,0-0.3,0-0.5,0h0l-94.8-6.1c-3.9-0.2-6.8-3.6-6.5-7.4c0,0,0,0,0,0l1.6-25.2
	c0.2-3.9,3.6-6.8,7.4-6.5c0,0,0,0,0,0l94.8,6.1c3.9,0.3,6.8,3.6,6.5,7.4l-1.6,25.2c-0.2,2.8-2,5.1-4.5,6.1
	C263.6,204.8,262.8,205,262,205z"/>
<path class="st7" d="M739.5,597.2H1.2c-0.7,0-1.2-0.5-1.2-1.2c0-0.7,0.5-1.2,1.2-1.2h738.3c0.7,0,1.2,0.5,1.2,1.2
	C740.7,596.6,740.1,597.2,739.5,597.2z"/>
<g>
	
		<image style="overflow:visible;opacity:0.52;" width="220" height="312" xlink:href="3BBC11.png"  transform="matrix(1 0 0 1 484 236.1752)">
	</image>
	<g>
		<g>
			<g>
				<path class="st8" d="M565.8,284.7c1.7,1,3.8,1.5,6.1,1.5h0c1.1,0,2,0.2,2.7,0.6c0.7,0.4,1.2,0.9,1.6,1.7l2.6,5.6l3.5-1.3
					L580,288c-0.6-1.3-1.4-2.2-2.4-2.6c2-0.7,3.7-1.9,5-3.4c1.4-1.5,2.4-3.3,3.2-5.5c0.7-2.1,1.1-4.5,1.1-7c0-2.6-0.5-4.8-1.5-6.6
					c-1-1.8-2.4-3.2-4.2-4.1c-1.8-0.9-3.9-1.4-6.4-1.4c-3,0-5.6,0.7-7.8,2.2c-2.2,1.5-3.8,3.4-5,6s-1.7,5.4-1.7,8.6
					c0,2.6,0.5,4.7,1.4,6.5S564.1,283.8,565.8,284.7z M565.8,267.3c0.8-2,1.9-3.5,3.4-4.6c1.5-1.1,3.3-1.7,5.5-1.7
					c2.4,0,4.3,0.7,5.7,2.1c1.4,1.4,2.1,3.6,2.1,6.5c0,2.5-0.4,4.7-1.2,6.7c-0.8,2-1.9,3.5-3.4,4.7c-1.5,1.1-3.3,1.7-5.5,1.7
					c-2.4,0-4.3-0.7-5.7-2.1c-1.4-1.4-2.1-3.6-2.1-6.5C564.7,271.5,565.1,269.2,565.8,267.3z"/>
				<path class="st8" d="M597.2,286.3c1.5,0,2.8-0.3,3.9-0.9c1.2-0.6,2.1-1.5,2.8-2.6l-0.5,3.2h3.9l3.1-19.5h-4l-1.6,10.5
					c-0.3,1.9-1,3.4-2,4.5c-1,1.1-2.4,1.7-4.1,1.7c-2.6,0-3.7-1.6-3.2-4.9l1.8-11.7h-4l-1.8,11.7c-0.5,2.8-0.1,4.9,1,6.2
					C593.5,285.6,595.1,286.3,597.2,286.3z"/>
				<path class="st8" d="M623.4,286.3c1.4,0,2.8-0.2,4.2-0.7c1.4-0.4,2.5-1.1,3.4-1.9l-1.1-2.7c-0.9,0.7-1.8,1.3-2.9,1.6
					c-1.1,0.3-2.2,0.5-3.4,0.5c-1.9,0-3.4-0.5-4.5-1.6c-1-1.1-1.5-2.6-1.3-4.4h14.4l0.1-1c0.2-1.8,0.1-3.4-0.3-4.9
					c-0.5-1.5-1.3-2.8-2.5-3.7c-1.2-0.9-2.9-1.4-4.9-1.4c-2.1,0-4,0.5-5.5,1.5c-1.6,1-2.8,2.4-3.7,4.2c-0.9,1.7-1.3,3.7-1.3,5.8
					c0,2.7,0.8,4.8,2.5,6.4S620.5,286.3,623.4,286.3z M619.3,271.8c0.5-0.9,1.2-1.6,2.1-2.1c0.9-0.5,1.9-0.8,3.2-0.8
					c1.8,0,3,0.6,3.8,1.7c0.7,1.1,1,2.5,0.9,4.1h-11C618.4,273.6,618.8,272.7,619.3,271.8z"/>
				<path class="st8" d="M649,278.9c-0.3,2.2,0,4,1.1,5.3c1.1,1.3,2.9,2,5.3,2c0.6,0,1.2-0.1,1.9-0.2c0.7-0.1,1.2-0.3,1.6-0.5
					l-0.3-3.1c-0.3,0.1-0.7,0.2-1.1,0.3c-0.4,0.1-0.8,0.1-1.2,0.1c-1.2,0-2.1-0.3-2.7-1c-0.6-0.7-0.7-1.8-0.5-3.3l1.5-9.1h6l0.5-3.1
					h-6l0.9-5.9h-4l-0.9,5.9h-3.8l-0.5,3.1h3.8L649,278.9z"/>
				<path class="st8" d="M669,286.3c1.5,0,2.8-0.3,3.9-0.9c1.2-0.6,2.1-1.5,2.8-2.6l-0.5,3.2h3.9l3.1-19.5h-4l-1.6,10.5
					c-0.3,1.9-1,3.4-2,4.5c-1,1.1-2.4,1.7-4.1,1.7c-2.6,0-3.7-1.6-3.2-4.9l1.8-11.7h-4l-1.8,11.7c-0.5,2.8-0.1,4.9,1,6.2
					C665.3,285.6,666.9,286.3,669,286.3z"/>
				<path class="st8" d="M584.4,333.9l4.5-28.2h-4l-1.9,12.3c-0.5-1.3-1.4-2.3-2.5-3c-1.1-0.7-2.4-1-3.9-1c-2,0-3.8,0.5-5.2,1.6
					c-1.5,1.1-2.6,2.5-3.4,4.3s-1.2,3.8-1.2,6c0,2.6,0.7,4.6,2,6.1c1.4,1.5,3.2,2.3,5.4,2.3c1.5,0,2.8-0.3,3.9-0.9
					c1.2-0.6,2.1-1.5,2.8-2.6l-0.5,3.2H584.4z M579.1,330c-0.9,0.8-2.1,1.2-3.4,1.2c-1.5,0-2.7-0.5-3.6-1.4s-1.3-2.3-1.3-4
					c0-1.6,0.2-3,0.7-4.3c0.5-1.3,1.2-2.3,2.2-3.1c0.9-0.8,2.1-1.1,3.5-1.1c1.5,0,2.7,0.5,3.5,1.4s1.3,2.3,1.3,4
					c0,1.6-0.2,3-0.7,4.3C580.7,328.2,580,329.2,579.1,330z"/>
				<polygon class="st8" points="597.8,314.4 593.7,314.4 590.6,333.9 594.7,333.9 				"/>
				<polygon class="st8" points="594.2,309.9 598.8,309.9 599.5,305.7 594.8,305.7 				"/>
				<path class="st8" d="M614.4,333.9h4l1.8-11.8c0.4-2.8,0.1-4.8-1-6.1c-1.1-1.3-2.7-2-4.9-2c-1.5,0-2.9,0.3-4.1,0.9
					c-1.2,0.6-2.1,1.5-2.8,2.7l0.5-3.3h-3.9l-3.1,19.5h4l1.7-10.5c0.3-1.9,1-3.4,2-4.5c1.1-1.1,2.5-1.7,4.3-1.7c2.7,0,3.8,1.7,3.3,5
					L614.4,333.9z"/>
				<path class="st8" d="M626.3,319.7c-0.9,1.7-1.3,3.7-1.3,5.8c0,2.7,0.8,4.8,2.5,6.4c1.7,1.6,4,2.3,6.8,2.3c1.4,0,2.8-0.2,4.2-0.7
					c1.4-0.4,2.5-1.1,3.4-1.9l-1.1-2.7c-0.9,0.7-1.8,1.3-2.9,1.6c-1.1,0.3-2.2,0.5-3.4,0.5c-1.9,0-3.4-0.5-4.5-1.6
					c-1-1.1-1.5-2.6-1.3-4.4h14.4l0.1-1c0.2-1.8,0.1-3.4-0.3-4.9c-0.5-1.5-1.3-2.8-2.5-3.7s-2.9-1.4-4.9-1.4c-2.1,0-4,0.5-5.5,1.5
					C628.4,316.6,627.2,318,626.3,319.7z M632.3,317.7c0.9-0.5,1.9-0.8,3.2-0.8c1.8,0,3,0.6,3.8,1.7s1,2.5,0.9,4.1h-11
					c0.2-1,0.6-1.9,1.1-2.8C630.7,318.9,631.4,318.2,632.3,317.7z"/>
				<path class="st8" d="M652.4,323.4c0.3-1.7,0.8-3.1,1.7-4.1c0.9-1,2.3-1.6,4.3-1.7l2.7-0.3l0-3.4l-1.6,0.1
					c-1.5,0.1-2.8,0.5-3.9,1.1c-1.1,0.6-1.9,1.5-2.5,2.5l0.5-3.3h-3.9l-3.1,19.5h4.1L652.4,323.4z"/>
				<path class="st8" d="M671.3,334.3c2,0,3.8-0.5,5.4-1.5c1.6-1,2.8-2.3,3.7-4.1c0.9-1.7,1.4-3.8,1.4-6c0-2.7-0.8-4.8-2.3-6.3
					c-1.6-1.6-3.7-2.3-6.5-2.3c-2,0-3.8,0.5-5.4,1.5c-1.6,1-2.8,2.3-3.7,4.1c-0.9,1.7-1.4,3.7-1.4,6c0,2.7,0.8,4.8,2.3,6.3
					C666.4,333.5,668.6,334.3,671.3,334.3z M667.4,321.4c0.5-1.3,1.2-2.3,2.2-3.1c0.9-0.8,2.1-1.1,3.5-1.1c1.5,0,2.7,0.5,3.5,1.4
					s1.3,2.3,1.3,4c0,1.6-0.2,3-0.7,4.3c-0.5,1.3-1.2,2.3-2.2,3.1c-0.9,0.8-2.1,1.2-3.5,1.2c-1.5,0-2.7-0.5-3.5-1.4s-1.3-2.3-1.3-4
					C666.6,324.1,666.9,322.7,667.4,321.4z"/>
				<path class="st8" d="M595.4,371.4c0.3-1.7,0.8-3.1,1.7-4.1c0.9-1,2.3-1.6,4.3-1.7l2.7-0.3l0-3.4l-1.6,0.1
					c-1.5,0.1-2.8,0.5-3.9,1.1c-1.1,0.6-1.9,1.5-2.5,2.5l0.5-3.3h-3.9l-3.1,19.5h4.1L595.4,371.4z"/>
				<polygon class="st8" points="614,353.7 609.3,353.7 608.6,357.9 613.3,357.9 				"/>
				<polygon class="st8" points="605.1,381.9 609.1,381.9 612.2,362.4 608.2,362.4 				"/>
				<path class="st8" d="M628.9,381.9h4l1.8-11.8c0.4-2.8,0.1-4.8-1-6.1c-1.1-1.3-2.7-2-4.9-2c-1.5,0-2.9,0.3-4.1,0.9
					c-1.2,0.6-2.1,1.5-2.8,2.7l0.5-3.3h-3.9l-3.1,19.5h4l1.7-10.5c0.3-1.9,1-3.4,2-4.5c1.1-1.1,2.5-1.7,4.3-1.7c2.7,0,3.8,1.7,3.3,5
					L628.9,381.9z"/>
				<path class="st8" d="M640.5,367.9c-0.8,1.8-1.2,3.8-1.2,6c0,2.6,0.7,4.6,2,6.1c1.4,1.5,3.2,2.3,5.4,2.3c1.5,0,2.8-0.3,3.9-0.9
					c1.2-0.6,2.1-1.5,2.8-2.6l-0.5,3.2h4l4.5-28.2h-4l-1.9,12.3c-0.5-1.3-1.4-2.3-2.5-3c-1.1-0.7-2.4-1-3.9-1c-2,0-3.8,0.5-5.2,1.6
					C642.4,364.7,641.3,366.1,640.5,367.9z M644.2,369.4c0.5-1.3,1.2-2.3,2.2-3.1c0.9-0.8,2.1-1.1,3.5-1.1c1.5,0,2.7,0.5,3.5,1.4
					s1.3,2.3,1.3,4c0,1.6-0.2,3-0.7,4.3c-0.5,1.3-1.2,2.3-2.2,3.1c-0.9,0.8-2.1,1.2-3.4,1.2c-1.5,0-2.7-0.5-3.6-1.4s-1.3-2.3-1.3-4
					C643.5,372.1,643.7,370.7,644.2,369.4z"/>
				<path class="st8" d="M679.3,381.9l1.8-11.4c0.4-2.5,0-4.6-1.1-6.1c-1.1-1.6-3.2-2.4-6.1-2.4c-1.5,0-3,0.2-4.5,0.6
					c-1.5,0.4-2.7,1-3.7,1.7l1,2.9c2.1-1.4,4.3-2,6.7-2c1.6,0,2.7,0.4,3.3,1.1c0.6,0.7,0.8,1.8,0.6,3.2l-0.2,1h-2.8
					c-3.8,0-6.6,0.5-8.4,1.4s-2.6,2.4-2.6,4.5c0,1.1,0.3,2.1,0.9,3c0.6,0.9,1.4,1.6,2.4,2.1c1,0.5,2.1,0.8,3.2,0.8
					c1.2,0,2.3-0.3,3.4-0.8s2-1.4,2.6-2.6l-0.4,3H679.3z M674.6,378c-1.1,0.9-2.3,1.3-3.6,1.3c-1,0-1.8-0.3-2.5-0.8
					c-0.7-0.6-1.1-1.4-1.1-2.4c0-1.2,0.5-2,1.6-2.5c1.1-0.5,3-0.7,5.8-0.7h2l-0.2,1.4C676.3,375.9,675.7,377.2,674.6,378z"/>
				<path class="st8" d="M657,429.9l4.5-28.2h-4l-1.9,12.3c-0.5-1.3-1.4-2.3-2.5-3c-1.1-0.7-2.4-1-3.9-1c-2,0-3.8,0.5-5.2,1.6
					c-1.5,1.1-2.6,2.5-3.4,4.3s-1.2,3.8-1.2,6c0,2.6,0.7,4.6,2,6.1c1.4,1.5,3.2,2.3,5.4,2.3c1.5,0,2.8-0.3,3.9-0.9
					c1.2-0.6,2.1-1.5,2.8-2.6l-0.5,3.2H657z M651.7,426c-0.9,0.8-2.1,1.2-3.4,1.2c-1.5,0-2.7-0.5-3.6-1.4s-1.3-2.3-1.3-4
					c0-1.6,0.2-3,0.7-4.3c0.5-1.3,1.2-2.3,2.2-3.1c0.9-0.8,2.1-1.1,3.5-1.1c1.5,0,2.7,0.5,3.5,1.4s1.3,2.3,1.3,4
					c0,1.6-0.2,3-0.7,4.3C653.4,424.2,652.7,425.2,651.7,426z"/>
				<path class="st8" d="M679.2,411.4c-1.2-0.9-2.9-1.4-4.9-1.4c-2.1,0-4,0.5-5.5,1.5c-1.6,1-2.8,2.4-3.7,4.2
					c-0.9,1.7-1.3,3.7-1.3,5.8c0,2.7,0.8,4.8,2.5,6.4c1.7,1.6,4,2.3,6.8,2.3c1.4,0,2.8-0.2,4.2-0.7c1.4-0.4,2.5-1.1,3.4-1.9
					l-1.1-2.7c-0.9,0.7-1.8,1.3-2.9,1.6c-1.1,0.3-2.2,0.5-3.4,0.5c-1.9,0-3.4-0.5-4.5-1.6c-1-1.1-1.5-2.6-1.3-4.4h14.4l0.1-1
					c0.2-1.8,0.1-3.4-0.3-4.9C681.2,413.6,680.4,412.4,679.2,411.4z M678.8,418.6h-11c0.2-1,0.6-1.9,1.1-2.8
					c0.5-0.9,1.2-1.6,2.1-2.1c0.9-0.5,1.9-0.8,3.2-0.8c1.8,0,3,0.6,3.8,1.7S679,417,678.8,418.6z"/>
				<path class="st8" d="M570,458c-1.6,0-2.9,0.3-4.1,1c-1.2,0.7-2.1,1.7-2.8,3c-0.7-2.7-2.5-4-5.4-4c-1.3,0-2.5,0.3-3.6,0.9
					c-1.1,0.6-2,1.5-2.8,2.7l0.5-3.2H548l-3.1,19.5h4l1.7-10.5c0.3-1.9,1-3.4,1.9-4.5s2.2-1.6,3.7-1.6c2.5,0,3.4,1.6,3,4.8
					l-1.9,11.8h4l1.7-10.5c0.3-1.9,1-3.4,1.9-4.5s2.2-1.6,3.7-1.6c2.5,0,3.5,1.6,3,4.8l-1.8,11.8h4l1.8-11.8
					c0.4-2.8,0.1-4.9-0.9-6.2S572,458,570,458z"/>
				<path class="st8" d="M596,477.9l1.8-11.4c0.4-2.5,0-4.6-1.1-6.1c-1.1-1.6-3.2-2.4-6.1-2.4c-1.5,0-3,0.2-4.5,0.6
					c-1.5,0.4-2.7,1-3.7,1.7l1,2.9c2.1-1.4,4.3-2,6.7-2c1.6,0,2.7,0.4,3.3,1.1c0.6,0.7,0.8,1.8,0.6,3.2l-0.2,1h-2.8
					c-3.8,0-6.6,0.5-8.4,1.4s-2.6,2.4-2.6,4.5c0,1.1,0.3,2.1,0.9,3c0.6,0.9,1.4,1.6,2.4,2.1c1,0.5,2.1,0.8,3.2,0.8
					c1.2,0,2.3-0.3,3.4-0.8s2-1.4,2.6-2.6l-0.4,3H596z M591.3,474c-1.1,0.9-2.3,1.3-3.6,1.3c-1,0-1.8-0.3-2.5-0.8
					c-0.7-0.6-1.1-1.4-1.1-2.4c0-1.2,0.5-2,1.6-2.5c1.1-0.5,3-0.7,5.8-0.7h2l-0.2,1.4C593,471.9,592.4,473.2,591.3,474z"/>
				<path class="st8" d="M617.4,466.2l-1.8,11.7h4l1.8-11.8c0.4-2.8,0.1-4.8-1-6.1c-1.1-1.3-2.7-2-4.9-2c-1.5,0-2.9,0.3-4.1,0.9
					c-1.2,0.6-2.1,1.5-2.8,2.7l0.5-3.3h-3.9l-3.1,19.5h4l1.7-10.5c0.3-1.9,1-3.4,2-4.5c1.1-1.1,2.5-1.7,4.3-1.7
					C616.8,461.3,617.9,462.9,617.4,466.2z"/>
				<path class="st8" d="M643.1,475.7l-1.1-2.7c-0.9,0.7-1.8,1.3-2.9,1.6c-1.1,0.3-2.2,0.5-3.4,0.5c-1.9,0-3.4-0.5-4.5-1.6
					c-1-1.1-1.5-2.6-1.3-4.4h14.4l0.1-1c0.2-1.8,0.1-3.4-0.3-4.9c-0.5-1.5-1.3-2.8-2.5-3.7s-2.9-1.4-4.9-1.4c-2.1,0-4,0.5-5.5,1.5
					c-1.6,1-2.8,2.4-3.7,4.2c-0.9,1.7-1.3,3.7-1.3,5.8c0,2.7,0.8,4.8,2.5,6.4c1.7,1.6,4,2.3,6.8,2.3c1.4,0,2.8-0.2,4.2-0.7
					C641,477.2,642.2,476.5,643.1,475.7z M631.3,463.8c0.5-0.9,1.2-1.6,2.1-2.1c0.9-0.5,1.9-0.8,3.2-0.8c1.8,0,3,0.6,3.8,1.7
					s1,2.5,0.9,4.1h-11C630.5,465.6,630.8,464.7,631.3,463.8z"/>
				<path class="st8" d="M659.5,461.6l2.7-0.3l0-3.4l-1.6,0.1c-1.5,0.1-2.8,0.5-3.9,1.1c-1.1,0.6-1.9,1.5-2.5,2.5l0.5-3.3h-3.9
					l-3.1,19.5h4.1l1.7-10.5c0.3-1.7,0.8-3.1,1.7-4.1C656.1,462.4,657.6,461.8,659.5,461.6z"/>
				<path class="st8" d="M673.9,458c-1.5,0-3,0.2-4.5,0.6c-1.5,0.4-2.7,1-3.7,1.7l1,2.9c2.1-1.4,4.3-2,6.7-2c1.6,0,2.7,0.4,3.3,1.1
					c0.6,0.7,0.8,1.8,0.6,3.2l-0.2,1h-2.8c-3.8,0-6.6,0.5-8.4,1.4s-2.6,2.4-2.6,4.5c0,1.1,0.3,2.1,0.9,3c0.6,0.9,1.4,1.6,2.4,2.1
					c1,0.5,2.1,0.8,3.2,0.8c1.2,0,2.3-0.3,3.4-0.8s2-1.4,2.6-2.6l-0.4,3h3.8l1.8-11.4c0.4-2.5,0-4.6-1.1-6.1
					C678.8,458.8,676.8,458,673.9,458z M676.6,470.3c-0.2,1.6-0.9,2.8-1.9,3.7c-1.1,0.9-2.3,1.3-3.6,1.3c-1,0-1.8-0.3-2.5-0.8
					c-0.7-0.6-1.1-1.4-1.1-2.4c0-1.2,0.5-2,1.6-2.5c1.1-0.5,3-0.7,5.8-0.7h2L676.6,470.3z"/>
				<path class="st8" d="M522.2,510c-0.5-1.3-1.4-2.3-2.5-3c-1.1-0.7-2.4-1-3.9-1c-2,0-3.8,0.5-5.2,1.6c-1.5,1.1-2.6,2.5-3.4,4.3
					c-0.8,1.8-1.2,3.8-1.2,6c0,2.6,0.7,4.6,2,6.1c1.4,1.5,3.2,2.3,5.4,2.3c1.5,0,2.8-0.3,3.9-0.9c1.2-0.6,2.1-1.5,2.8-2.6l-0.5,3.2
					h4l4.5-28.2h-4L522.2,510z M520.5,518.9c-0.5,1.3-1.2,2.3-2.2,3.1c-0.9,0.8-2.1,1.2-3.4,1.2c-1.5,0-2.7-0.5-3.6-1.4
					s-1.3-2.3-1.3-4c0-1.6,0.2-3,0.7-4.3c0.5-1.3,1.2-2.3,2.2-3.1c0.9-0.8,2.1-1.1,3.5-1.1c1.5,0,2.7,0.5,3.5,1.4s1.3,2.3,1.3,4
					C521.2,516.2,521,517.6,520.5,518.9z"/>
				<polygon class="st8" points="529.9,525.9 534,525.9 537,506.4 533,506.4 				"/>
				<polygon class="st8" points="533.4,501.9 538.1,501.9 538.8,497.7 534.1,497.7 				"/>
				<path class="st8" d="M548.8,505.1c0.2-1.4,0.7-2.5,1.5-3.2c0.8-0.7,2-1.1,3.6-1.2l2-0.1l0-3l-2.2,0.1c-2.8,0.1-4.9,0.8-6.3,2.1
					c-1.5,1.3-2.4,3.1-2.7,5.3l-0.2,1.2h-3.8l-0.5,3.1h3.8l-2.6,16.4h4l2.6-16.4h5.4l0.5-3.1h-5.4L548.8,505.1z"/>
				<path class="st8" d="M570.6,507.4c-1.2-0.9-2.9-1.4-4.9-1.4c-2.1,0-4,0.5-5.5,1.5c-1.6,1-2.8,2.4-3.7,4.2s-1.3,3.7-1.3,5.8
					c0,2.7,0.8,4.8,2.5,6.4c1.7,1.6,4,2.3,6.8,2.3c1.4,0,2.8-0.2,4.2-0.7c1.4-0.4,2.5-1.1,3.4-1.9L571,521c-0.9,0.7-1.8,1.3-2.9,1.6
					c-1.1,0.3-2.2,0.5-3.4,0.5c-1.9,0-3.4-0.5-4.5-1.6c-1-1.1-1.5-2.6-1.3-4.4h14.4l0.1-1c0.2-1.8,0.1-3.4-0.3-4.9
					C572.6,509.6,571.8,508.4,570.6,507.4z M570.2,514.6h-11c0.2-1,0.6-1.9,1.1-2.8c0.5-0.9,1.2-1.6,2.1-2.1
					c0.9-0.5,1.9-0.8,3.2-0.8c1.8,0,3,0.6,3.8,1.7S570.4,513,570.2,514.6z"/>
				<path class="st8" d="M585.8,507.1c-1.1,0.6-1.9,1.5-2.5,2.5l0.5-3.3h-3.9l-3.1,19.5h4.1l1.7-10.5c0.3-1.7,0.8-3.1,1.7-4.1
					s2.3-1.6,4.3-1.7l2.7-0.3l0-3.4l-1.6,0.1C588.2,506.1,586.9,506.5,585.8,507.1z"/>
				<path class="st8" d="M608.2,507.4c-1.2-0.9-2.9-1.4-4.9-1.4c-2.1,0-4,0.5-5.5,1.5c-1.6,1-2.8,2.4-3.7,4.2s-1.3,3.7-1.3,5.8
					c0,2.7,0.8,4.8,2.5,6.4c1.7,1.6,4,2.3,6.8,2.3c1.4,0,2.8-0.2,4.2-0.7c1.4-0.4,2.5-1.1,3.4-1.9l-1.1-2.7
					c-0.9,0.7-1.8,1.3-2.9,1.6c-1.1,0.3-2.2,0.5-3.4,0.5c-1.9,0-3.4-0.5-4.5-1.6c-1-1.1-1.5-2.6-1.3-4.4h14.4l0.1-1
					c0.2-1.8,0.1-3.4-0.3-4.9C610.2,509.6,609.4,508.4,608.2,507.4z M607.8,514.6h-11c0.2-1,0.6-1.9,1.1-2.8
					c0.5-0.9,1.2-1.6,2.1-2.1c0.9-0.5,1.9-0.8,3.2-0.8c1.8,0,3,0.6,3.8,1.7S608,513,607.8,514.6z"/>
				<path class="st8" d="M627.8,506c-1.5,0-2.9,0.3-4.1,0.9c-1.2,0.6-2.1,1.5-2.8,2.7l0.5-3.3h-3.9l-3.1,19.5h4l1.7-10.5
					c0.3-1.9,1-3.4,2-4.5c1.1-1.1,2.5-1.7,4.3-1.7c2.7,0,3.8,1.7,3.3,5l-1.8,11.7h4l1.8-11.8c0.4-2.8,0.1-4.8-1-6.1
					C631.6,506.7,630,506,627.8,506z"/>
				<path class="st8" d="M647.2,500.5h-4l-0.9,5.9h-3.8l-0.5,3.1h3.8l-1.5,9.4c-0.3,2.2,0,4,1.1,5.3c1.1,1.3,2.9,2,5.3,2
					c0.6,0,1.2-0.1,1.9-0.2c0.7-0.1,1.2-0.3,1.6-0.5l-0.3-3.1c-0.3,0.1-0.7,0.2-1.1,0.3c-0.4,0.1-0.8,0.1-1.2,0.1
					c-1.2,0-2.1-0.3-2.7-1c-0.6-0.7-0.7-1.8-0.5-3.3l1.5-9.1h6l0.5-3.1h-6L647.2,500.5z"/>
				<path class="st8" d="M669.1,507.4c-1.2-0.9-2.9-1.4-4.9-1.4c-2.1,0-4,0.5-5.5,1.5c-1.6,1-2.8,2.4-3.7,4.2s-1.3,3.7-1.3,5.8
					c0,2.7,0.8,4.8,2.5,6.4c1.7,1.6,4,2.3,6.8,2.3c1.4,0,2.8-0.2,4.2-0.7c1.4-0.4,2.5-1.1,3.4-1.9l-1.1-2.7
					c-0.9,0.7-1.8,1.3-2.9,1.6c-1.1,0.3-2.2,0.5-3.4,0.5c-1.9,0-3.4-0.5-4.5-1.6c-1-1.1-1.5-2.6-1.3-4.4h14.4l0.1-1
					c0.2-1.8,0.1-3.4-0.3-4.9C671.1,509.6,670.3,508.4,669.1,507.4z M668.7,514.6h-11c0.2-1,0.6-1.9,1.1-2.8
					c0.5-0.9,1.2-1.6,2.1-2.1c0.9-0.5,1.9-0.8,3.2-0.8c1.8,0,3,0.6,3.8,1.7S668.9,513,668.7,514.6z"/>
				<polygon class="st8" points="674.8,525.9 679.6,525.9 680.3,521.1 675.6,521.1 				"/>
			</g>
		</g>
	</g>
</g>
<path class="st8" d="M271,87"/>
</svg>
