<svg id="Capa_1" data-name="Capa 1" xmlns="http://www.w3.org/2000/svg" viewBox="0 0 583 695.51"><defs><style>.cls-1{fill:#f2f2f2;}.cls-2{fill:#3f3d56;}.cls-3{fill:#fff;}.cls-4{fill:#e6e6e6;}.cls-5{fill:#ffdc1f;}.cls-6{fill:#a0616a;}.cls-7{fill:#2f2e41;}.cls-8{opacity:0.1;}.cls-10,.cls-11,.cls-8{isolation:isolate;}.cls-9{fill:none;}.cls-11{font-size:27px;font-family:NunitoSans-SemiBoldItalic, Nunito Sans;font-weight:600;font-style:italic;}.cls-12{letter-spacing:-0.01em;}.cls-13{letter-spacing:0em;}.cls-14{letter-spacing:-0.01em;}.cls-15{letter-spacing:-0.05em;}.cls-16{letter-spacing:0em;}.cls-17{letter-spacing:-0.01em;}.cls-18{letter-spacing:0em;}.cls-19{letter-spacing:-0.01em;}.cls-20{letter-spacing:-0.01em;}</style></defs><path class="cls-1" d="M151.8,420.8c-.8-1.4-4.5.1-5.2-1.2s2.7-3.2,4.7-7.7c.3-.8,2.6-5.9.9-7.5-3.1-3-17.2,9.3-22.2,5.3-1.1-.9-1.8-2.6-5.1-5.5-1.3-1.1-2.1-1.7-2.9-1.5-1.1.3-1.2,1.7-2.3,4.6-1.7,4.3-2.8,4-3.8,7.4-.8,2.5-.6,4-1.5,4.3-1.3.4-2.4-2.3-4-2s-2.6,3.4-2.9,5.7c-.6,4.4,1,7.3,1.9,10.4,1,3.3,1.6,8.4-.7,15.5L86.4,511.4c4.9-12.9,19.2-48.2,25.1-61.3,1.7-3.8,3.6-7.6,7.6-9.1,3.8-1.5,8.9-.6,15.6-2.2.8-.2,2.9-.7,3.2-2,.2-1-1-1.6-.8-2.6.3-1.3,2.7-1.3,5.8-2.8a18.26,18.26,0,0,0,4.6-3.4c.3-.4,5.4-5.3,4.3-7.2Z"/><path class="cls-1" d="M64.1,453.8c-.9,0-1.2,2.2-2.1,2.2s-.8-2.3-2.4-4.5c-.3-.4-2.2-3-3.4-2.6-2.4.7-.4,11.1-3.8,12.4-.7.3-1.8.1-4.2.9-.9.3-1.4.6-1.5,1-.2.6.5,1.1,1.6,2.5,1.6,2.1,1.2,2.5,2.6,4,1,1.1,1.8,1.4,1.7,2s-1.8.5-2.2,1.4.9,2.3,2,3.1c2,1.6,3.9,1.6,5.6,2a15.15,15.15,0,0,1,7.4,4.8l24.4,29c-4.9-6.1-18.1-23.3-22.8-30-1.4-1.9-2.7-4-2.3-6.3s2.3-4.6,3.4-8.3c.1-.4.5-1.6-.1-2.1-.4-.4-1.1,0-1.5-.3-.6-.5.1-1.7.3-3.7a10.58,10.58,0,0,0-.3-3.3c-.2-.2-1.1-4.2-2.4-4.2Z"/><path class="cls-1" d="M82.9,458l-.6-5.1.3-.4a9.33,9.33,0,0,0,1.8-5.2v-.8a8.27,8.27,0,0,1,.6-3.9c.4-.9,1.5-2.8,3.1-2.6a2.34,2.34,0,0,1,1,.5c0-.1.1-.1.1-.2a4.48,4.48,0,0,1,1.3-1.4,5.49,5.49,0,0,0,1.1-1.1c.2-.3.4-.5.5-.7a2.42,2.42,0,0,1,1.9-1.3,2.32,2.32,0,0,1,1.9,1.5,14.51,14.51,0,0,1,1.1,2.2c.1.2.1.4.2.4.3.5,3,0,4.1-.1,2.3-.4,4.3-.7,5.1.7.6,1,.2,2.4-1.3,4.2a8,8,0,0,1-1.4,1.3,1.37,1.37,0,0,1,.8,1.1h0c.3,1.2-.7,2.5-3.1,3.7a8.85,8.85,0,0,1-2.5.9,7.08,7.08,0,0,1-1.4.1,3.09,3.09,0,0,1-.2.8c-.4.8-1.3,1.1-2.6,1A31.85,31.85,0,0,1,91,453a6.9,6.9,0,0,0-2.3-.3c-1.2.1-2,1-3.1,2.2L82.9,458Z"/><path class="cls-1" d="M85.6,427.9l-4.8,1.8-.4-.2a9.75,9.75,0,0,0-5.5-.5c-.3.1-.5.1-.8.2a7.83,7.83,0,0,1-3.9.4c-.9-.2-3.1-.7-3.3-2.3a2,2,0,0,1,.2-1.1c-.1,0-.1,0-.2-.1a5.16,5.16,0,0,1-1.7-.9,6,6,0,0,0-1.3-.8,6.89,6.89,0,0,1-.8-.3c-.7-.3-1.5-.6-1.7-1.5a2.53,2.53,0,0,1,.9-2.2,7.53,7.53,0,0,1,1.9-1.6,1.38,1.38,0,0,0,.4-.3c.4-.4-.7-2.9-1.2-3.9-.9-2.1-1.8-4-.6-5.1.9-.8,2.3-.8,4.4.2a11.16,11.16,0,0,1,1.6,1,2.1,2.1,0,0,1,.8-1.1h0c1.1-.6,2.6.1,4.3,2.1a11.7,11.7,0,0,1,1.5,2.2,11.22,11.22,0,0,1,.5,1.3,1.1,1.1,0,0,1,.8,0c.9.2,1.4,1,1.7,2.3a27.63,27.63,0,0,1,.4,3.7,7.12,7.12,0,0,0,.3,2.3c.4,1.1,1.5,1.7,2.9,2.4l3.6,2Z"/><path class="cls-1" d="M82.9,412.9l-.6-5.1.3-.4a9.33,9.33,0,0,0,1.8-5.2v-.8a8.27,8.27,0,0,1,.6-3.9c.4-.9,1.5-2.8,3.1-2.6a2.34,2.34,0,0,1,1,.5c0-.1.1-.1.1-.2a4.48,4.48,0,0,1,1.3-1.4,5.49,5.49,0,0,0,1.1-1.1c.2-.3.4-.5.5-.7a2.42,2.42,0,0,1,1.9-1.3,2.32,2.32,0,0,1,1.9,1.5,14.51,14.51,0,0,1,1.1,2.2c.1.2.1.4.2.4.3.5,3,0,4.1-.1,2.3-.4,4.3-.7,5.1.7.6,1,.2,2.4-1.3,4.2a8,8,0,0,1-1.4,1.3,1.37,1.37,0,0,1,.8,1.1h0c.3,1.2-.7,2.5-3.1,3.7a8.85,8.85,0,0,1-2.5.9,7.08,7.08,0,0,1-1.4.1,3.09,3.09,0,0,1-.2.8c-.4.8-1.3,1.1-2.6,1a31.85,31.85,0,0,1-3.7-.6,6.9,6.9,0,0,0-2.3-.3c-1.2.1-2,1-3.1,2.2l-2.7,3.1Z"/><path class="cls-1" d="M88.1,511.3l-1.1-.7-.3-1.2.3,1.2-1.2.1c0-.1-.1-.4-.2-.8a188.09,188.09,0,0,1-3.7-20,222.16,222.16,0,0,1-1.7-23.2c-.1-7.8.3-13.7.6-18.5.2-3.6.5-7,.8-10.3.7-8.9,1.4-17.3.9-26.5a23,23,0,0,0-8.9-18l1.6-2a24.55,24.55,0,0,1,6.6,7.8A28.23,28.23,0,0,1,85,411.3c.5,9.4-.2,17.9-.9,26.9-.3,3.3-.5,6.7-.8,10.3-.3,4.7-.7,10.6-.5,18.3a216.47,216.47,0,0,0,1.6,22.9A187,187,0,0,0,88,509.4c.4,1.2.4,1.4.1,1.9Z"/><path class="cls-1" d="M69.1,397.4h-.3c-2.1-.1-4.1-1.4-5.9-3.8a16.38,16.38,0,0,1-2.1-5,34.05,34.05,0,0,1-1.2-5.2c-.3-1.8-.2-2.6.1-3.2a3.53,3.53,0,0,1,1.8-1.6,1.7,1.7,0,0,1,.1-.7c.4-1,1.6-.9,2.2-.8.3,0,.7.1,1.1.1a2.46,2.46,0,0,0,1.5-.5,7.09,7.09,0,0,1,2.1-.8,6.89,6.89,0,0,1,3.9.3c2.7.9,4,3,5.6,5.4a20,20,0,0,1,2.1,4.7,6.21,6.21,0,0,1,.3,3.1c-.3,1.2-1,1.9-2.9,3.4a37,37,0,0,1-3.7,2.9c-1.9,1-3.1,1.7-4.7,1.7Z"/><path class="cls-2" d="M336.3,511H176a43.7,43.7,0,0,1-43.6-43.6V43.6A43.7,43.7,0,0,1,176,0H336.3a43.7,43.7,0,0,1,43.6,43.6c3,170.2,8.1,360.8,0,423.8A43.7,43.7,0,0,1,336.3,511Z"/><path class="cls-2" d="M382.1,155.9a1.79,1.79,0,0,0-1.8,1.8v59a1.8,1.8,0,1,0,3.6,0v-59A1.68,1.68,0,0,0,382.1,155.9Z"/><path class="cls-3" d="M364.8,48.9l10.9,418.5a39.56,39.56,0,0,1-36.9,39.4h-2.5s-2-.1-5.7-.4-9.2-.7-16-1.2c-2-.2-4.2-.3-6.5-.5-4.5-.4-9.5-.8-14.8-1.2l-6.6-.6c-11.5-1-24.3-2.1-37.8-3.4-2.3-.2-4.6-.4-6.9-.7-.6-.1-105.5-26.4-105.5-31.4V43.6A39.52,39.52,0,0,1,176,4.1h23.6a7.12,7.12,0,0,1,7.1,6.7c0,.2.1.5.1.7a8,8,0,0,0,8,6.4h82.8a8.05,8.05,0,0,0,8-6.4c0-.2.1-.5.1-.7a7.12,7.12,0,0,1,7.1-6.7h23.6c21.7,0,28.4,23,28.4,44.8Z"/><path class="cls-2" d="M131.5,111.6a1.79,1.79,0,0,0-1.8,1.8v14.8a1.8,1.8,0,0,0,3.6,0V113.4A1.79,1.79,0,0,0,131.5,111.6Z"/><path class="cls-2" d="M131.5,155.9a1.79,1.79,0,0,0-1.8,1.8v28.6a1.8,1.8,0,1,0,3.6,0V157.7a1.79,1.79,0,0,0-1.8-1.8Z"/><path class="cls-2" d="M131.5,196.5a1.79,1.79,0,0,0-1.8,1.8v28.6a1.8,1.8,0,1,0,3.6,0V198.3A1.79,1.79,0,0,0,131.5,196.5Z"/><path class="cls-4" d="M583,511.2h0a.79.79,0,0,1-.8.8H0v-1.7H582.2A.82.82,0,0,1,583,511.2Z"/><path class="cls-3" d="M341.8,480.4H165.7c-7.1,0-12.9-16.2-12.9-36.1V71c0-19.9,5.8-36.1,12.9-36.1H341.9c7.1,0,12.9,16.2,12.9,36.1V444.4C354.7,464.3,348.9,480.4,341.8,480.4Z"/><path class="cls-2" d="M341.8,480.4H165.7c-7.1,0-12.9-16.2-12.9-36.1V71c0-19.9,5.8-36.1,12.9-36.1H341.9c7.1,0,12.9,16.2,12.9,36.1V444.4C354.7,464.3,348.9,480.4,341.8,480.4ZM165.7,40.9c-5.9,0-10.7,13.5-10.7,30V444.3c0,16.6,4.8,30,10.7,30H341.9c5.9,0,10.7-13.5,10.7-30V71c0-16.6-4.8-30-10.7-30l-176.2-.1Z"/><path class="cls-4" d="M171.1,217c-.9,0-1.6,2-1.6,4.5a10.23,10.23,0,0,0,.5,3.2c.3.9.7,1.3,1.1,1.3H337.5c.9,0,1.6-2,1.6-4.5a10.23,10.23,0,0,0-.5-3.2c-.3-.9-.7-1.3-1.1-1.3Z"/><path class="cls-5" d="M307.4,215.5v12H171.1c-.6,0-1.1-.7-1.5-1.8a12.87,12.87,0,0,1-.6-4.2c0-3.3,1-6,2.1-6Z"/><path class="cls-4" d="M334.8,193H313.3c-2.4,0-4.3-5.4-4.3-12s1.9-12,4.3-12h21.5c2.4,0,4.3,5.4,4.3,12S337.2,193,334.8,193Z"/><path class="cls-4" d="M194.1,129.7H172.6c-2.4,0-4.3-5.4-4.3-12s1.9-12,4.3-12h21.5c2.4,0,4.3,5.4,4.3,12S196.5,129.7,194.1,129.7Z"/><path class="cls-4" d="M171.1,352.5c-.9,0-1.6,2-1.6,4.5a10.23,10.23,0,0,0,.5,3.2c.3.9.7,1.3,1.1,1.3H337.5c.9,0,1.6-2,1.6-4.5a10.23,10.23,0,0,0-.5-3.2c-.3-.9-.7-1.3-1.1-1.3Z"/><path class="cls-5" d="M224.7,351v12H171c-.6,0-1.1-.7-1.5-1.8a12.87,12.87,0,0,1-.6-4.2c0-3.3,1-6,2.1-6Z"/><path class="cls-4" d="M334.8,328.4H313.3c-2.4,0-4.3-5.4-4.3-12s1.9-12,4.3-12h21.5c2.4,0,4.3,5.4,4.3,12S337.2,328.4,334.8,328.4Z"/><polygon class="cls-6" points="458.6 609.8 478.4 616.1 453.1 674.5 439.7 670.2 458.6 609.8"/><path class="cls-7" d="M462,656.4l-7.9.5-1.6,4.1s.2-5.3-8.1-9.7l-2.6,3.5s-4.9,2.6-7,9.8l-5,19.6,6.6,2.4,6.1-12.6s2.9-2.3,5.9,15c0,0,8.3,5.8,24.3,6.5a5,5,0,0,0,5-3.3,2.62,2.62,0,0,0-.9-3.3c-3.3-2.3-7.3-2.5-8.5-6.3S462,656.4,462,656.4Z"/><polygon class="cls-6" points="321.6 599.6 301.5 604.8 323.3 664.5 336.9 661 321.6 599.6"/><path class="cls-7" d="M315.5,645.9l7.8,1,1.3,4.2s.1-5.3,8.7-9.2l2.3,3.7s4.7,2.9,6.4,10.2l3.8,19.9-6.7,2-5.3-13s-2.8-2.4-6.7,14.6c0,0-8.6,5.3-24.6,5.1a5,5,0,0,1-4.8-3.6,2.52,2.52,0,0,1,1.1-3.2c3.4-2.2,7.4-2.1,8.8-5.8s7.9-25.9,7.9-25.9Z"/><rect class="cls-7" x="371.1" y="280.5" width="53.7" height="79.3"/><polygon class="cls-6" points="415.6 415.5 413.9 458 361.1 454 367.5 412.3 415.6 415.5"/><path class="cls-7" d="M357.1,438.8l76.1,2.4,19,26.9-8.8,47.3s-38.2-10.9-101.5,2l4-44.1,12.2-12.2Z"/><path class="cls-7" d="M439.6,470.8l20.8,8.8s39.3,17.6,41.7,41.7-26.2,113.8-26.2,113.8L444.5,637s9.3,6.5,9.3-38c0-31,13.8-60.8,13.8-60.8s-20-36.9-71.3-28c0,0-56-1.8-82.5,31.8,0,0,14,30,15,48l4.1,39-26.4,2.4s-38.4-102.8-21.6-123.6,52.9-32.9,52.9-32.9l101.8-4.1Z"/><polygon class="cls-6" points="412.7 335.6 410.8 312.9 385.8 312.9 380.3 337 412.7 335.6"/><polygon class="cls-8" points="412.7 335.6 410.8 312.9 385.8 312.9 380.3 337 412.7 335.6"/><path class="cls-6" d="M421.7,292.8a27.3,27.3,0,1,1-27.3-27.3A27.27,27.27,0,0,1,421.7,292.8Z"/><path class="cls-5" d="M380.3,332.2h32.1l4,8.8,4,88.9s-30.5-7.2-56.9-6.4l6.4-80.9,8-4.8Z"/><path class="cls-7" d="M410.7,513.3s16-36.1,22.4-36.9,20.9,0,20.9,0l-3.2-5.6s-.8-11.2-8.8-11.2-4.8-115.4-4.8-115.4l-22.4-6.8S402,377,402,414.7s-1.6,79.3-1.6,79.3l10.3,19.3Z"/><path class="cls-7" d="M378.8,335.6l-28.2,7.8L353.8,454l-18.4,22.4s24,0,29.6,20c0,0,6.7,11,13.7,9.9s2.3-23.5,2.3-23.5l-7.2-28,.8-47.3,4.2-71.9Z"/><path class="cls-7" d="M387.5,264.1s0-11.2,10.4-8.8,13.6,6.4,13.6,6.4,4,6.4,10.4,7.2,12,19.2,11.2,23.2-4.8,14.4.8,19.2,13.6,12,11.2,19.2-9.6,25.6-9.6,25.6,20.1,2.9,18.5,15.5c0,0-9.7-7.5-22.5-7.5S420.4,341,420.4,341s-.8-14.4-3.2-18.4.8-26.4-11.2-38.5S387.5,264.1,387.5,264.1Z"/><path class="cls-7" d="M390.7,261.7s-15.2,3.2-20.8,18.4-2.8,18.1-2.8,18.1-1.2,9.2-8,12.4-1.2,16.8-1.2,16.8-1.6,13.6-23.2,18.4-16.8,32.9-16.8,32.9,17.6-24.8,40.1-25.6,18.4-25.6,18.4-25.6L374,301.1s4.8-30.5,19.2-34.5-2.5-4.9-2.5-4.9Z"/><path id="uuid-cac2eb5b-24ea-45f6-922f-e2b1ec3fbeeb-2478" class="cls-6" d="M412.4,515.2c-.6,7.5,2.7,13.8,7.4,14.2s9.1-5.3,9.7-12.8a18.86,18.86,0,0,0-1.2-8.8l2.3-31.6-14.9-.8-.7,31.3a23.92,23.92,0,0,0-2.6,8.5Z"/><path id="uuid-f52766af-11e7-4213-b1b4-c8e9d82d1748-2479" class="cls-6" d="M354.8,516c-.6,7.5,2.7,13.8,7.4,14.2s9.1-5.3,9.7-12.8a18.86,18.86,0,0,0-1.2-8.8L373,477l-14.9-.8-.7,31.3a20.47,20.47,0,0,0-2.6,8.5Z"/><path class="cls-7" d="M431.2,344.6s20-5.6,24,7.2-8.4,83.3-8.4,83.3l-11.6,73.7L410.4,504l16-98.6,4.8-60.8Z"/><path class="cls-7" d="M370.8,343.6s-19.4-7.5-24.6,4.9.5,83.8.5,83.8l4.6,74.5,25.2-2.4-6.6-99.6.9-61.2Z"/><rect class="cls-9" x="42" y="536" width="243" height="143"/><g id="Ingresa_ya_y..._lleva_el_control_de_tus_gastos_a_otro_nivel_" data-name="Ingresa ya y...ยก lleva el control de tus gastos a otro nivel!" class="cls-10"><text class="cls-11" transform="translate(42 555.03)">Ing<tspan class="cls-12" x="38.83" y="0">r</tspan><tspan class="cls-13" x="48.71" y="0">esa </tspan><tspan class="cls-14" x="97.87" y="0">y</tspan><tspan class="cls-13" x="111.64" y="0">a </tspan><tspan class="cls-15" x="133.24" y="0">y</tspan><tspan x="145.96" y="0">...ยก l</tspan><tspan class="cls-16" x="186.92" y="0">l</tspan><tspan class="cls-12" x="195.04" y="0">e</tspan><tspan class="cls-17" x="209.35" y="0">v</tspan><tspan x="223.12" y="0">a</tspan></text><text class="cls-11" transform="translate(42 587.43)">el <tspan class="cls-14" x="29.86" y="0">c</tspan><tspan x="42.2" y="0">ont</tspan><tspan class="cls-12" x="82.86" y="0">r</tspan><tspan x="92.74" y="0">ol</tspan></text><text class="cls-11" transform="translate(42 619.83)">de tus ga<tspan class="cls-16" x="113.48" y="0">st</tspan><tspan class="cls-18" x="136.13" y="0">os</tspan></text><text class="cls-11" transform="translate(42 652.23)">a <tspan class="cls-16" x="21.6" y="0">o</tspan><tspan class="cls-18" x="36.72" y="0">t</tspan><tspan class="cls-19" x="46.57" y="0">r</tspan><tspan class="cls-18" x="56.46" y="0">o ni</tspan><tspan class="cls-20" x="100.92" y="0">v</tspan><tspan x="114.72" y="0">el!</tspan></text></g></svg>