<svg id="Capa_1" data-name="Capa 1" xmlns="http://www.w3.org/2000/svg" viewBox="0 0 709.2 453.8"><defs><style>.cls-1{fill:#e6e6e6;}.cls-2{fill:#fff;}.cls-3{fill:#ffdc1f;}.cls-4{fill:#eaa508;}.cls-5{fill:#df622d;}.cls-6{fill:#2f2e41;}.cls-7{fill:#ffb6b6;}.cls-8{fill:#ffb8b8;}.cls-9{fill:#3f3d56;}.cls-10{fill:none;}.cls-11,.cls-12,.cls-19{isolation:isolate;}.cls-12{font-size:29px;font-family:NunitoSans-SemiBoldItalic, Nunito Sans;font-weight:600;font-style:italic;}.cls-13{letter-spacing:0em;}.cls-14{letter-spacing:0em;}.cls-15{letter-spacing:-0.01em;}.cls-16{letter-spacing:-0.01em;}.cls-17{letter-spacing:-0.02em;}.cls-18{letter-spacing:-0.04em;}.cls-19{font-size:34px;font-family:NunitoSans-Bold, Nunito Sans;font-weight:700;}</style></defs><path class="cls-1" d="M163.5,273.3l.6-229.9a17.54,17.54,0,0,1,17.6-17.5l173.6.5A17.54,17.54,0,0,1,372.8,44l-.6,230a17.54,17.54,0,0,1-17.6,17.5L181,291A17.63,17.63,0,0,1,163.5,273.3Z"/><path class="cls-2" d="M177,217.2l.4-147.8A16.43,16.43,0,0,1,193.9,53l149.2.4a16.43,16.43,0,0,1,16.4,16.5l-.6,204.6a16.43,16.43,0,0,1-16.5,16.4l-92.4-.3A73.3,73.3,0,0,1,177,217.2Z"/><path class="cls-3" d="M326.4,168.4H210a7,7,0,0,1,0-14H326.4a7,7,0,0,1,0,14Z"/><path class="cls-4" d="M235.6,130.1H210a7,7,0,0,1,0-14h25.6a7,7,0,0,1,0,14Z"/><path class="cls-3" d="M326.4,229.8H210a7,7,0,0,1,0-14H326.4a7,7,0,0,1,0,14Z"/><path class="cls-3" d="M326.4,199.1H210a7,7,0,0,1,0-14H326.4a7,7,0,0,1,0,14Z"/><circle class="cls-5" cx="29.5" cy="332.3" r="27.8"/><path class="cls-2" d="M26.8,346.8a3.34,3.34,0,0,1-2.5-1.2l-7.6-10.1a3.07,3.07,0,0,1,4.9-3.7h0l5,6.6,12.7-19.1a3.11,3.11,0,1,1,5.2,3.4h0L29.3,345.4a2.74,2.74,0,0,1-2.5,1.4Z"/><path class="cls-6" d="M30.5,295.3h-2V283.8h2Zm0-23h-2V260.8h2Zm0-22.9h-2V237.9h2Zm0-22.9h-2V215h2Zm0-22.9h-2V192.1h2Z"/><polygon class="cls-6" points="31.5 183 29.5 183 29.5 176 36.5 176 36.5 178 31.5 178 31.5 183"/><path class="cls-6" d="M139.2,179.5H127.4v-2h11.8Zm-23.6,0H103.8v-2h11.8Zm-23.6,0H80.2v-2H92Zm-23.6,0H56.6v-2H68.4Z"/><rect class="cls-6" x="142.6" y="177.5" width="6" height="2"/><rect class="cls-6" x="669" y="312.3" width="2" height="6"/><path class="cls-6" d="M672,258.5h-2V245.4h2Zm0-26.2h-2V219.2h2Z"/><path class="cls-6" d="M627,176H614.6v-2H627Zm-24.9,0H589.7v-2h12.4Zm-24.8,0H564.9v-2h12.4Zm-24.9,0H540v-2h12.4Zm-24.8,0H515.1v-2h12.4Zm-24.9,0H490.3v-2h12.4Zm-24.9,0H465.4v-2h12.4ZM453,176H440.6v-2H453Zm-24.9,0H415.7v-2h12.4Z"/><rect class="cls-6" x="397.1" y="175" width="6" height="2"/><circle class="cls-5" cx="671" cy="356" r="27.8"/><path class="cls-2" d="M676.4,356l5.5-5.5a3.89,3.89,0,0,0-5.5-5.5l-5.5,5.5-5.5-5.5a3.89,3.89,0,0,0-5.5,5.5l5.5,5.5-5.5,5.5a3.89,3.89,0,0,0,5.5,5.5h0l5.5-5.5,5.5,5.5a3.89,3.89,0,0,0,5.5-5.5h0Z"/><polygon class="cls-6" points="593 189.8 599 225.4 656 194.8 593 189.8"/><polygon class="cls-7" points="586.2 411.2 574.3 410.7 570.5 364.4 588.1 365.1 586.2 411.2"/><path class="cls-6" d="M587,278.8c21.7-6.6,26.1-34.8,38-41,0-14.9.6-61.2-14.3-60.3-8.3.5-54.5,85-56.5,99-3.7,26,15.9,92.3,13.7,96.9l22.8,1.4.1-1.8c.4-4.9,4-19.5-.1-22.1l-1.6-1h0c0-5.1,1.1-13.7-3.4-15.9h0a.48.48,0,0,1-.2-.6h0Z"/><path class="cls-6" d="M592.4,421.6l-8,.5-1.9-7.5-3.2,7.8-21.2,1.2a4.72,4.72,0,0,1-5-4.5,4.63,4.63,0,0,1,1.8-4l16.2-12.7-.4-7.6h17.9Z"/><polygon class="cls-7" points="677.2 327.8 689.1 328.7 698.5 283.3 681 281.8 677.2 327.8"/><path class="cls-6" d="M672.6,212.5c-10.7,18.8-29.8,23.3-49.6,26.5-8.6-12.2-21.8-29.1-9.1-37,7-4.4,68.1-40,77.5-29.5,24.6,27.5,7,116.2,8.6,114.2l-19.5-.3-1.1-1.4a13.07,13.07,0,0,1-2-13.4l.7-1.7h0a13.12,13.12,0,0,1-.8-14l.2-.4Z"/><path class="cls-6" d="M676.9,311.2l17.7,2.2-1.4,7.5,14.6,14.6a4.65,4.65,0,0,1,0,6.7,4.7,4.7,0,0,1-4.2,1.3l-20.9-3.8-2.2-8.1-2.8,7.2-7.9-1.4Z"/><path class="cls-4" d="M630.6,62.8h-8.2a10.47,10.47,0,0,0-8.5,4.4L608,75.8l-14.7,2.7a25.82,25.82,0,0,0-10.6,31.2c10.4,27.3,15.5,78.5,5.3,101.1,0,0,61.5,5.6,77-13s3-109,3-109l-23-13-5.9-8.6A10.21,10.21,0,0,0,630.6,62.8Z"/><path class="cls-7" d="M668.8,222.5a6.82,6.82,0,0,0-.3-9.7c-.3-.3-.6-.5-.9-.8l13.5-44.3-15-9-8.3,55.6a6.9,6.9,0,0,0,2.6,9.4,6.59,6.59,0,0,0,8.4-1.2Z"/><path class="cls-4" d="M682,172.8l-18-7,.8-9L643.4,110A17.38,17.38,0,0,1,652,87a17.6,17.6,0,0,1,3-1h0a17.3,17.3,0,0,1,21,12.6l14.1,56.2C691.7,163.5,689.8,170,682,172.8Z"/><path class="cls-6" d="M657.1,35.5a30.55,30.55,0,1,0-61.1-.1V54.6a4.06,4.06,0,0,0,4.1,4.1h.8a29.35,29.35,0,0,0,1.6-7.7,28.43,28.43,0,0,1,3.6,7.7h47a4.06,4.06,0,0,0,4.1-4.1C659.6,49.6,660.7,43.8,657.1,35.5Z"/><circle class="cls-8" cx="625.3" cy="36.2" r="22.4"/><path class="cls-6" d="M602.3,36.1a2.38,2.38,0,0,1-.5-1.8l2.7-18.5a2.1,2.1,0,0,1,1.3-1.7,46.4,46.4,0,0,1,40.8,0,2.42,2.42,0,0,1,1.3,1.9l2.8,14.5a2.47,2.47,0,0,1-.6,1.8c-.4.5-1,10.9-1.7,10.9.5-6.2-.8-9.2-5.5-6.1a2.33,2.33,0,0,1-2.1-1.3l-1.9-4.2a1.36,1.36,0,0,0-1.8-.7,1.55,1.55,0,0,0-.8,1.1l-.4,3.1a2.29,2.29,0,0,1-2.3,2c-7.9,3.9-18.3,2.9-29.6,0A4.25,4.25,0,0,1,602.3,36.1Z"/><path class="cls-9" d="M643.2,160.7H606.5a4.69,4.69,0,0,1-4.7-4.7V116.5a4.69,4.69,0,0,1,4.7-4.7h36.7a4.69,4.69,0,0,1,4.7,4.7V156A4.69,4.69,0,0,1,643.2,160.7Z"/><circle class="cls-1" cx="607.5" cy="117.5" r="2.7"/><circle class="cls-9" cx="607.5" cy="117.5" r="1.6"/><path class="cls-8" d="M649.7,134.1a8.37,8.37,0,0,1-11.8.6,5.24,5.24,0,0,1-1-1.1L604,142.7l-5-11,39.8-10.2a8.39,8.39,0,0,1,10.9,12.6Z"/><path class="cls-4" d="M607.9,143l-9.2,2.9c-10,10.6-13.6,2.9-25.4,2.1-2.2-.1-4-2-5.2-5.4a21.25,21.25,0,0,1,.5-14.9L585,86.6l6.9-5.6,9.6,11.5-7.4,31.7,12.1,6.2Z"/><rect class="cls-10" x="178.8" y="304.7" width="300.6" height="98"/><g class="cls-11"><text class="cls-12" transform="translate(178.83 336.15)">¡O<tspan class="cls-13" x="29.35" y="0">R</tspan><tspan class="cls-14" x="48.84" y="0">GANI</tspan><tspan class="cls-15" x="120.7" y="0">Z</tspan><tspan x="137.69" y="0">A TUS</tspan></text><text class="cls-12" transform="translate(178.83 376.95)">G<tspan class="cls-16" x="21.2" y="0">A</tspan><tspan class="cls-17" x="42.34" y="0">S</tspan><tspan class="cls-18" x="59.94" y="0">T</tspan><tspan x="76.39" y="0">OS!</tspan></text><text class="cls-19" transform="translate(304.53 376.95)"> </text></g><path class="cls-6" d="M672,304.5h-2V291.4h2Zm0-26.2h-2V265.2h2Z"/></svg>