<?xml version="1.0" encoding="utf-8"?>
<!-- Generator: Adobe Illustrator 24.0.2, SVG Export Plug-In . SVG Version: 6.00 Build 0)  -->
<svg version="1.1" id="Capa_1" xmlns="http://www.w3.org/2000/svg" xmlns:xlink="http://www.w3.org/1999/xlink" x="0px" y="0px"
	 viewBox="0 0 1713.3 1787.2" style="enable-background:new 0 0 1713.3 1787.2;" xml:space="preserve">
<style type="text/css">
	.st0{fill:#F59D4F;}
	.st1{fill:#EC6145;}
	.st2{fill:#FF8000;}
	.st3{fill:#F2F22B;}
	.st4{fill:#F7F766;}
	.st5{fill:#ED1C24;}
	.st6{fill:#FFFFFF;}
	.st7{fill:#F59D4F;stroke:#ED6D12;stroke-width:6;stroke-miterlimit:10;}
	.st8{fill:#333333;}
	.st9{fill:#F2F2F2;}
	.st10{fill:#FCEE21;}
	.st11{fill:none;enable-background:new    ;}
	.st12{font-family:'Impact';}
	.st13{font-size:700px;}
</style>
<title>Error 403 Forbidden Error</title>
<g>
	<g id="_Layer_">
		<g>
			<circle class="st0" cx="793.7" cy="681.2" r="634.5"/>
			<path class="st1" d="M793.7,1335.4c-360.7,0-654.2-293.5-654.2-654.2S433,27.1,793.7,27.1s654.2,293.5,654.2,654.2
				S1154.4,1335.4,793.7,1335.4z M793.7,66.3c-339.1,0-614.9,275.9-614.9,615s275.9,615,615,615s615-275.9,615-614.9
				S1132.8,66.3,793.7,66.3L793.7,66.3z"/>
		</g>
		<path class="st2" d="M662.6,1011c-66.1,113.5-328.8,372.3-328.8,372.3s89.3-346.3,155.4-459.8s158.4-185.9,206.3-161.8
			S728.7,897.4,662.6,1011z"/>
		<path class="st3" d="M616,1039.7c-40.7,69.9-243.6,277.1-243.6,277.1s75.6-271.4,116.3-341.3S590.9,863.3,626,881
			C661.2,898.8,656.7,969.8,616,1039.7z"/>
		<path class="st4" d="M625.9,977.2c-40.9,70.2-208.4,262-208.4,262s81.1-235.4,122-305.6s93.3-117.4,117.2-105.3
			S666.8,907.1,625.9,977.2z"/>
		<path class="st5" d="M529,868.6L529,868.6l2-8.1l0,0l13.6-55.2l6-24.2c0.7,0.3,1.4,0.5,2.1,0.8l60.5-245.2c0,0-0.9,0.2-2.4,0.5
			l0.4-1.6c0,0-5.2,1-14.2,3.7l0,0l-0.3,0.1c-1.5,0.4-3.1,0.9-4.8,1.5h-0.1c-1.6,0.5-3.4,1.1-5.2,1.7l-1.2,0.4
			c-1.6,0.5-3.2,1.1-4.9,1.7l-1.1,0.4c-1.9,0.7-3.9,1.5-6,2.3l-1.7,0.7c-1.7,0.7-3.3,1.4-5.1,2.1L565,551c-2.1,0.9-4.4,1.9-6.6,2.9
			c-0.7,0.3-1.4,0.6-2.1,1c-1.8,0.8-3.6,1.7-5.4,2.5l-2.3,1.1c-2.4,1.2-4.8,2.4-7.2,3.6l-2.3,1.2c-1.9,1-3.9,2.1-5.9,3.2l-2.6,1.4
			c-2.6,1.4-5.2,2.9-7.8,4.5l-2.2,1.3c-2.1,1.3-4.3,2.6-6.4,4l-2.7,1.7c-2.7,1.8-5.5,3.6-8.3,5.5l-1.8,1.2c-2.4,1.6-4.7,3.3-7.1,5
			c-0.9,0.6-1.8,1.3-2.7,2c-2.9,2.1-5.8,4.3-8.7,6.6l-1.1,0.9c-2.6,2.1-5.2,4.2-7.9,6.4c-0.8,0.7-1.7,1.4-2.5,2.2
			c-2.9,2.5-5.8,5-8.7,7.7l-0.3,0.2c-19.3,17.6-36.7,37.2-51.9,58.4c-31.5,43.9-58.6,101.1-73.8,175.3c-5.3,26.5-9,53.3-10.8,80.3
			c0,0,132.5-79.6,194.3-65.4C523.3,866.5,526.2,867.4,529,868.6L529,868.6z"/>
		<path class="st5" d="M690.3,950L690.3,950l6.2-6l0,0l42.2-40.7l18.5-17.9c-0.6-0.4-1.2-0.9-1.8-1.2l187.5-181c0,0,0.3,0.8,0.8,2.2
			l1.2-1.2c0,0,1.9,4.6,4.4,13.1l0,0c0,0.1,0,0.2,0.1,0.2c0.4,1.4,0.8,2.9,1.3,4.5c0,0,0,0,0,0.1c0.4,1.6,0.9,3.3,1.3,5l0.3,1.1
			c0.4,1.5,0.7,3.1,1.1,4.7c0.1,0.4,0.2,0.7,0.2,1c0.4,1.9,0.8,3.8,1.2,5.9c0.1,0.6,0.2,1.1,0.3,1.7c0.3,1.7,0.6,3.3,0.9,5.1
			c0.1,0.6,0.2,1.2,0.3,1.8c0.3,2.2,0.7,4.4,1,6.8c0.1,0.7,0.2,1.4,0.3,2.2c0.2,1.8,0.5,3.7,0.7,5.6c0.1,0.8,0.2,1.6,0.3,2.4
			c0.3,2.5,0.5,5,0.7,7.6c0.1,0.8,0.1,1.6,0.2,2.4c0.1,2.1,0.3,4.2,0.4,6.3c0,0.9,0.1,1.8,0.1,2.8c0.1,2.8,0.2,5.6,0.2,8.5
			c0,0.8,0,1.6,0,2.4c0,2.4,0,4.7-0.1,7.2c0,1,0,2-0.1,3c-0.1,3.1-0.2,6.3-0.4,9.5c0,0.7-0.1,1.4-0.2,2c-0.2,2.7-0.4,5.5-0.7,8.3
			c-0.1,1-0.2,2.1-0.3,3.1c-0.3,3.4-0.7,6.9-1.2,10.4c-0.1,0.5-0.1,0.9-0.2,1.4c-0.4,3.2-0.9,6.4-1.5,9.7c-0.2,1.1-0.4,2.1-0.6,3.2
			c-0.7,3.6-1.3,7.3-2.2,10.9c0,0.1,0,0.2-0.1,0.3c-5.4,24.9-13.6,49.2-24.3,72.3c-22.3,48.6-58.9,100.9-117.5,153.3
			c-21,18.7-43.2,36.2-66.3,52.3c0,0-0.7-146.8-47.2-187.3C695.2,953.1,692.8,951.4,690.3,950L690.3,950z"/>
		<path class="st6" d="M326.1,931.2l164-43.7c13.9-3.7,23.6-15.3,23.9-28.8l0,0l-105.8,4.9C366.4,863.4,331,892.5,326.1,931.2
			L326.1,931.2z"/>
		<path class="st7" d="M1068.8,564.5c-114.6,197-254.3,316.7-342.9,378.8c-14.4,10.1-27.5,18.7-38.9,25.8
			c-14.1-13.7-29.4-26-45.8-36.8c-10.9-7.3-22.3-13.9-34-19.8c-16.3-8.2-33.3-15.2-50.7-20.7c-2.4-0.8-4.7-1.5-7.1-2.2l-21.7-5.6
			c-4.7-1-9.4-2-14.2-2.8c0.1-9.2,0.5-19.4,1.1-30.6c5.7-100.9,34.7-282,154.6-487.9C852.8,47.2,1138.7,0,1138.7,0
			S1252.4,249,1068.8,564.5z"/>
		<path class="st5" d="M1138.6,0c0,0-165.7,27.4-325.8,179.7c8.3-1.1,16.6-1.9,25-2.4c16.4-1,32.8-0.8,49.2,0.5
			c15.9,1.3,73.6,11.8,127,35.6c47.2,21.1,83.7,55.3,111.8,92.8c1.2,1.6,2.4,3.2,3.6,4.8c9.6,13.3,18.1,27.5,25.4,42.2
			C1204.6,144.6,1138.6,0,1138.6,0z"/>
		<path class="st8" d="M687,969.1c0,0-18-21.1-81.4-53s-92.2-34.8-92.2-34.8s44.3-23.6,107.6,8.3S687,969.1,687,969.1z"/>
		<path class="st9" d="M707.8,422.1C575,650.2,558.5,881.2,547.7,875.7c-10.8-5.5-11.9-245.3,120.9-473.4s349.1-358.2,359.9-352.8
			S840.5,194,707.8,422.1z"/>
		<path class="st9" d="M427,712.9c-51.2,88-59.3,176.1-63.3,174.1s-2.2-93.4,49-181.3s132.5-139.2,136.4-137.2
			S478.2,624.9,427,712.9z"/>
		<path class="st6" d="M744.7,1142.4l-50.5-151.6c-4.3-13,0.9-27,12.9-34.7l0,0l53.5,86.7C783.4,1075,776.5,1117.9,744.7,1142.4
			L744.7,1142.4z"/>
		<ellipse class="st1" cx="848" cy="499.7" rx="152" ry="141.5"/>
		<ellipse class="st0" cx="848" cy="499.7" rx="107.4" ry="100"/>
		<path class="st6" d="M747.8,449.1c-3.8,6.6-12.7,9-19.8,5.5s-9.7-11.8-5.9-18.4s12.7-9,19.8-5.5S751.6,442.5,747.8,449.1z"/>
		<path class="st6" d="M921.9,401.1c-3.8,6.6-12.7,9-19.8,5.5s-9.7-11.8-5.9-18.4s12.7-9,19.8-5.5S925.8,394.5,921.9,401.1z"/>
		<path class="st6" d="M976,564.3c-3.8,6.6-12.7,9-19.8,5.5s-9.7-11.8-5.9-18.4s12.7-9,19.8-5.5S979.8,557.7,976,564.3z"/>
		<path class="st6" d="M799,612.3c-3.8,6.6-12.7,9-19.8,5.5s-9.7-11.8-5.9-18.4s12.7-9,19.8-5.5S802.8,605.8,799,612.3z"/>
		<polygon class="st10" points="118.7,827.1 150.8,772.3 177.9,829.3 243.8,840.8 193.9,882.4 202.6,944.3 144.6,913 84.2,939.8 
			98.1,878.8 52.1,833.5 		"/>
		<polygon class="st10" points="919.4,1454.8 951.5,1400.1 978.6,1457 1044.4,1468.5 994.6,1510.2 1003.3,1572 945.3,1540.8 
			884.8,1567.5 898.8,1506.6 852.8,1461.3 		"/>
		<polygon class="st10" points="1114,845.8 1146,791 1173.2,848 1239,859.5 1189.2,901.1 1197.8,963 1139.9,931.7 1079.4,958.5 
			1093.4,897.5 1047.4,852.2 		"/>
		<polygon class="st11" points="486.4,278.6 518.4,223.9 545.6,280.8 611.4,292.3 561.6,334 570.3,395.8 512.3,364.6 451.8,391.3 
			465.8,330.4 419.8,285.1 		"/>
		<polygon class="st10" points="1539,192.6 1571,137.9 1598.2,194.9 1664,206.3 1614.2,248 1622.9,309.8 1564.9,278.6 1504.4,305.4 
			1518.4,244.4 1472.4,199.1 		"/>
		<path class="st6" d="M313.1,219.5L145.4,546.2h111.5l1-152.1l121.6-0.5L379,545.8l136.6-0.4v119.6H383.3v157L255.9,821l-0.5-153.9
			h-220L0,586.8l199.2-411.1L313.1,219.5z"/>
		<text transform="matrix(1.07 0 0 1 1143.2002 719.1699)" class="st6 st12 st13">3</text>
	</g>
</g>
</svg>
